<svg xmlns="http://www.w3.org/2000/svg" viewBox="0 0 796.73 183.81">
    <defs>
        <style>
            .cls-1{fill:#3f3194}
        </style>
    </defs>
    <g id="Layer_2" data-name="Layer 2">
        <g id="Layer_1-2" data-name="Layer 1">
            <path d="M80.06 180.2l-46.85-58.43v58.43H0V0h33.21v108.12l44.28-56.63h39.64l-51.74 63.58 53.29 65.13zM255.37 101.17v79h-33.21v-74.88c0-17.5-10.56-26.51-25.49-26.51-16.21 0-28.31 9.52-28.31 31.92v69.5h-33.21V51.49h33.21V65.9c7.72-11.58 21.11-18 38.35-18 27.29-.02 48.66 19.03 48.66 53.27zM277 115.85c0-38.36 30.12-68 68-68s68.22 29.61 68.22 68-30.38 68-68.22 68-68-29.65-68-68zm103 0c0-20.86-15.19-35.53-35-35.53-19.57 0-34.75 14.67-34.75 35.53s15.18 35.52 34.75 35.52c19.77 0 35-14.67 35-35.52zM478.3 83.41V137c0 13.9 10 14.15 29.09 13.12v30.08c-46.6 5.15-62.3-8.49-62.3-43.24V83.41h-22.4V51.49h22.4v-26l33.21-10v36h29.09v31.92zM591.31 153.69c12.87 0 23.17-5.41 28.83-12.87l26.77 15.44c-12.1 17.51-31.4 27.55-56.12 27.55-43.25 0-70.53-29.61-70.53-68s27.54-68 68-68c38.1 0 65.13 30.12 65.13 68a76.92 76.92 0 0 1-1.29 13.64H555c4.64 17.03 18.8 24.24 36.31 24.24zm28.83-49.94c-4.12-18.54-18-26-31.92-26-17.76 0-29.86 9.52-33.73 26zM796.73 101.17v79h-33.21v-74.88c0-17.5-10.55-26.51-25.48-26.51-16.22 0-28.32 9.52-28.32 31.92v69.5h-33.21V51.49h33.21V65.9c7.72-11.58 21.11-18 38.36-18 27.29-.02 48.65 19.03 48.65 53.27z" class="cls-1"/>
        </g>
    </g>
</svg>
