<svg xmlns="http://www.w3.org/2000/svg" xmlns:xlink="http://www.w3.org/1999/xlink" viewBox="0 0 750 500"><defs><style>.cls-1,.cls-4{fill:#fff;}.cls-2{fill:#e1e8f6;}.cls-10,.cls-11,.cls-12,.cls-13,.cls-14,.cls-15,.cls-16,.cls-17,.cls-18,.cls-19,.cls-2,.cls-20,.cls-21,.cls-22,.cls-23,.cls-24,.cls-25,.cls-26,.cls-27,.cls-28,.cls-29,.cls-3,.cls-30,.cls-31,.cls-32,.cls-33,.cls-34,.cls-35,.cls-36,.cls-4,.cls-5,.cls-6,.cls-7,.cls-8,.cls-9{fill-rule:evenodd;}.cls-3{fill:#b4c5e6;}.cls-5{fill:#9fb2d9;}.cls-6{fill:#00000f;}.cls-7{fill:url(#GradientFill_1);}.cls-8{fill:#101537;}.cls-9{fill:#b32720;}.cls-10{fill:#d64c47;}.cls-11{fill:#3b405f;}.cls-12{fill:#674834;}.cls-13{fill:#b56b41;}.cls-14{fill:#d58750;}.cls-15{fill:#ea5756;}.cls-16{fill:#db4141;}.cls-17{fill:#fffaf9;}.cls-18{fill:#131936;}.cls-19{fill:#050a25;}.cls-20{fill:#f5ac83;}.cls-21{fill:#f2d8cd;}.cls-22{fill:#dcdcee;}.cls-23{fill:#b5b6d3;}.cls-24{fill:#d0d0e6;}.cls-25{fill:#9295bc;}.cls-26{fill:#294d3c;}.cls-27{fill:#4a9075;}.cls-28{fill:#1b7154;}.cls-29{fill:#a6c86b;}.cls-30{fill:#5f9850;}.cls-31{fill:#c0cdea;}.cls-32{fill:#151d3d;}.cls-33{fill:#33385c;}.cls-34{fill:#484e78;}.cls-35{fill:#cdcde2;}.cls-36{fill:#ededf6;}</style><linearGradient id="GradientFill_1" x1="196.78" y1="166.35" x2="172.08" y2="152.94" gradientUnits="userSpaceOnUse"><stop offset="0" stop-color="#e1e8f6"/><stop offset="1" stop-color="#fff"/></linearGradient></defs><title>lost</title><g id="BACKGROUND"><rect class="cls-1" x="125" width="500" height="500"/><rect class="cls-1" width="750" height="500"/></g><g id="OBJECTS"><path class="cls-2" d="M581.57,348.83H645.9c34.63,0,63,31.59,63,70.21h0c0,38.62-28.33,70.21-63,70.21h-544C45.87,489.24,0,438.08,0,375.56H0C0,313,45.87,261.86,101.94,261.86h0c23.7,0,43.1-21.63,43.1-48.07h0c0-26.44-19.4-48.07-43.1-48.07H50.06c-24.65,0-44.81-22.49-44.81-50h0c0-27.49,20.17-50,44.81-50h65.59c9.59,0,17.44-8.76,17.44-19.46h0c0-10.7-7.85-19.46-17.44-19.46H104.09c-6.62,0-12-6-12-13.43h0C92.05,6,97.47,0,104.09,0H180c16,0,17.76,21.05,58.12,21.05h93.59c8.64,0,15.71,7.89,15.71,17.52h0c0,9.64-7.07,17.52-15.71,17.52H316.59c-12.52,0-22.76,11.43-22.76,25.39h0c0,14,10.24,25.39,22.76,25.39H362c61.32,0,70,17.87,80.72,53.42s66.51,38.41,66.51,38.41h76.26c18.87,0,34.31,17.22,34.31,38.26h0c0,21-15.44,38.26-34.31,38.26h-3.93c-18.15,0-33,16.56-33,36.8h0c0,20.24,14.85,36.8,33,36.8ZM70.31,26.86c6.65,0,12-6,12-13.43S77,0,70.31,0s-12,6-12,13.43S63.66,26.86,70.31,26.86Z"/><path class="cls-3" d="M523.38,490c6.52-10.54,20.18-28.08,46.3-45.53,41.32-27.61,72.62-64.2,58.86-85.85-13.5-21.25-74,19.79-124.26,122.36A104.31,104.31,0,0,0,523.38,490Z"/><path class="cls-4" d="M515.31,480.61a22.83,22.83,0,0,1,8.15,1.24.52.52,0,0,0,.65-.39.6.6,0,0,0-.35-.73,24.7,24.7,0,0,0-7.82-1.31q1.34-2.54,2.68-5c1.82,0,7.71-.18,9.92,0a.55.55,0,0,0,.55-.55.56.56,0,0,0-.5-.62c-2-.12-7,0-9.33,0q2.52-4.59,5-8.93a109.11,109.11,0,0,1,13.29,1.12.54.54,0,0,0,.59-.5.58.58,0,0,0-.45-.66A111.25,111.25,0,0,0,525,463.15q2.54-4.36,5.07-8.47a155.29,155.29,0,0,1,19,1.6.54.54,0,0,0,.59-.5.58.58,0,0,0-.45-.66,157,157,0,0,0-18.41-1.59q3.34-5.38,6.64-10.33c2.53-.12,13-.42,20.9,2.4a.51.51,0,0,0,.66-.38.6.6,0,0,0-.34-.74c-7.34-2.62-16.86-2.6-20.42-2.48q4.07-6.06,8.08-11.5c3.45.22,17.33,1.39,23.83,6.52a.49.49,0,0,0,.73-.14.63.63,0,0,0-.13-.81c-6.3-5-19.14-6.35-23.61-6.68q4.25-5.75,8.41-10.84a101.69,101.69,0,0,1,23,9,.5.5,0,0,0,.7-.26.62.62,0,0,0-.23-.78,102.75,102.75,0,0,0-22.63-9q2.46-3,4.87-5.77c2.41.55,12.67,3.17,26.26,10.5a.5.5,0,0,0,.7-.27.62.62,0,0,0-.24-.78A113.78,113.78,0,0,0,562,410.77q5.73-6.53,11.14-11.9c3.05,1.12,18.49,7,26.61,12.71a.49.49,0,0,0,.72-.18.62.62,0,0,0-.16-.81c-7.8-5.53-22.16-11.09-26.26-12.62q3.15-3.1,6.16-5.84a146.81,146.81,0,0,1,25.5,12.74.5.5,0,0,0,.72-.21.62.62,0,0,0-.19-.8,147.42,147.42,0,0,0-25.06-12.6c4.7-4.22,9.13-7.79,13.21-10.8,2.58.68,14.24,3.93,23,9.6a.5.5,0,0,0,.72-.21.62.62,0,0,0-.19-.8c-8-5.21-18.49-8.4-22.32-9.47q2.53-1.83,4.87-3.37a74.31,74.31,0,0,1,19.86,5.64.51.51,0,0,0,.68-.34.61.61,0,0,0-.3-.76A78.55,78.55,0,0,0,602,375.24c12.57-8.1,20.38-10.16,20.45-10.17A.89.89,0,0,0,623,364a.79.79,0,0,0-1-.64,56.56,56.56,0,0,0-9.44,3.86,51.21,51.21,0,0,1,4.57-5.89.63.63,0,0,0,.17-.8.5.5,0,0,0-.72-.19c-.95.65-4.79,6.07-6.1,7.95-2.42,1.27-5.17,2.83-8.22,4.75l5.18-11.49a.61.61,0,0,0-.23-.78.5.5,0,0,0-.7.26l-5.9,13.07q-3.14,2-6.63,4.59l5.59-13.62a.61.61,0,0,0-.26-.78.5.5,0,0,0-.7.29l-6.29,15.34c-3.48,2.62-7.2,5.62-11.11,9.08l4.84-14.11a.61.61,0,0,0-.3-.76.51.51,0,0,0-.68.33l-5.49,16c-1.78,1.62-3.61,3.31-5.46,5.12l4.11-12.72a.61.61,0,0,0-.32-.75.51.51,0,0,0-.67.35l-4.75,14.72q-5.16,5.11-10.63,11.25L565,396a.6.6,0,0,0-.36-.72.52.52,0,0,0-.65.41l-3.6,14.45c-1.44,1.65-2.9,3.37-4.37,5.14l1.73-9.48a.59.59,0,0,0-.41-.69.53.53,0,0,0-.62.46L554.66,417q-4.09,5-8.3,10.64L548,417a.58.58,0,0,0-.43-.68.53.53,0,0,0-.6.48L545,429.41q-3.67,5-7.41,10.52l1.05-9.39a.57.57,0,0,0-.46-.65.54.54,0,0,0-.59.51l-1.28,11.43q-3.26,4.87-6.54,10.15l.05-8.48a.53.53,0,1,0-1,0l-.06,10.19q-2.37,3.85-4.76,7.93l-.82-7.23a.54.54,0,0,0-.59-.51.57.57,0,0,0-.45.65l1,8.6q-2.19,3.78-4.39,7.75l-.76-4.67a.53.53,0,0,0-.61-.47.58.58,0,0,0-.42.68l1,6q-1.64,3-3.27,6.09l-1.74-3.83a.5.5,0,0,0-.7-.26.62.62,0,0,0-.23.79l2,4.5q-1.33,2.54-2.67,5.15l1.44.72Q514,483,515.31,480.61Z"/><path class="cls-5" d="M515.89,496c7-4.92,19.3-11.52,37.9-14.48,31.57-5,59.75-19.45,57.62-38.7-2.06-18.54-46.81-11.4-102.51,38.91l7,14.21Z"/><path class="cls-3" d="M602.89,445.65a1.21,1.21,0,0,0,0-2.41,69.09,69.09,0,0,0-9.57.89l5.15-3.88a.86.86,0,0,0,.19-1.12.68.68,0,0,0-1-.22L590,444.68c-2.8.51-6,1.2-9.5,2.14l5.41-5.76a.87.87,0,0,0,0-1.14.67.67,0,0,0-1,0l-7.25,7.72c-3.65,1.06-7.6,2.38-11.79,4l4.53-5.2a.87.87,0,0,0,0-1.14.67.67,0,0,0-1,0l-6.61,7.59A148.91,148.91,0,0,0,549,459.51l3.83-5.49a.87.87,0,0,0-.13-1.13.67.67,0,0,0-1,.14L546,461.19A160.68,160.68,0,0,0,532.29,470l1.57-3.73a.85.85,0,0,0-.35-1.07.69.69,0,0,0-1,.39L530,471.7c-3.54,2.63-7.11,5.49-10.69,8.63l1.44-3.79a.84.84,0,0,0-.39-1.05.7.7,0,0,0-.95.43l-2.47,6.53q-2.62,2.37-5.24,4.94l1.06,2.18q2.62-2.58,5.24-5c1.78.13,6.06.53,7.86,1.59a.69.69,0,0,0,1-.34.85.85,0,0,0-.3-1.09c-1.59-.93-4.72-1.4-6.9-1.63q2.07-1.84,4.13-3.56c1.75.33,6.06,1.27,8.92,3.08a.69.69,0,0,0,1-.31.86.86,0,0,0-.27-1.1,27.27,27.27,0,0,0-8.05-3c2.84-2.32,5.67-4.46,8.46-6.46,2.4,1.11,10,4.72,13,7.45a.67.67,0,0,0,1-.11.87.87,0,0,0-.1-1.13c-2.8-2.57-9.33-5.8-12.42-7.26q4.5-3.13,8.88-5.76c2.4,1,10.21,4.56,15.37,9.11a.67.67,0,0,0,1-.13.87.87,0,0,0-.12-1.13c-4.64-4.1-11.35-7.38-14.59-8.84q2.17-1.27,4.29-2.42A67.09,67.09,0,0,1,568.87,472a.68.68,0,0,0,1-.18.87.87,0,0,0-.16-1.12A68.92,68.92,0,0,0,552,460.57a146.55,146.55,0,0,1,14.71-6.72c2.76,1.9,13.43,9.39,18.1,14.34a.67.67,0,0,0,1,0,.87.87,0,0,0,0-1.14c-4.32-4.58-13.56-11.21-17.33-13.85,3.47-1.3,6.76-2.38,9.83-3.27,2.48,2.11,11.63,9.92,13.75,12a.67.67,0,0,0,1-.08.87.87,0,0,0-.07-1.14c-1.94-1.87-9.6-8.43-12.91-11.25,4-1.1,7.62-1.89,10.72-2.44,2.22,2.16,7.58,7.37,8.83,8.76a.67.67,0,0,0,1,0,.88.88,0,0,0,0-1.14c-1.11-1.24-5.44-5.46-8-7.93A70.15,70.15,0,0,1,602.89,445.65Z"/><path class="cls-5" d="M412.4,388.65q-.69-10.53-.65-20.43,0-10.07.79-19.42c1.87-23.32,6.94-43.44,14.51-60.62a134.24,134.24,0,0,1,73.25-71.64,167.73,167.73,0,0,1,50.28-11.8c5.84-.48,11.72-.68,17.63-.62s11.93.39,17.85,1h0a2.37,2.37,0,0,1,1.66,1,2.93,2.93,0,0,1,.56,2l0,.19c-.24,2.57-5.56,57.66-29.62,107.43C534.28,366,490.84,411,414.28,391.16a2.42,2.42,0,0,1-1.34-.93,2.92,2.92,0,0,1-.54-1.58ZM585.58,209.42a246.61,246.61,0,0,0-31.16,17c6.44,1.28,21,4.3,27.6,6.64,2.17-11.7,3.2-20.26,3.55-23.62Zm-4,26.19h0c-7.58-2.76-27.33-6.6-30.27-7.17-8.22,5.31-17.47,11.8-27.31,19.58l51.25,15c2.73-10.05,4.8-19.4,6.35-27.44Zm-7,29.93-53-15.55A363.08,363.08,0,0,0,493,275.49c10.52,3.57,60.8,20.76,69.31,25.57a313.65,313.65,0,0,0,12.17-35.52Zm-13.15,37.87c-8.57-4.89-64.07-23.76-70.35-25.89-7.75,7.85-15.55,16.45-23.21,25.87l79,28.12a1,1,0,0,1,.27.14c3.4-5.63,6.51-11.43,9.35-17.31q2.63-5.43,5-10.93Zm-15.66,30.45-79.63-28.35c-6,7.43-11.83,15.36-17.52,23.8,12.87,4.85,78.79,27.73,79,27.8a1.12,1.12,0,0,1,.47.31,159.46,159.46,0,0,0,17.69-23.56Zm-19.5,25.5c-7-2.42-68.68-23.85-79.11-27.86q-7.32,11-14.17,23.2c15.57,8.58,67.93,23.73,68.08,23.78a1.19,1.19,0,0,1,.72.6,114.81,114.81,0,0,0,24.47-19.72ZM499.05,380.6c-8.39-2.46-53.18-15.78-67.37-23.69q-4.35,7.9-8.44,16.3c6,2.63,32.76,14.09,50.06,16.07a1.21,1.21,0,0,1,1,.94,98.47,98.47,0,0,0,24.74-9.62Zm-29.86,10.71c-17.72-3.09-42-13.54-47.07-15.79q-3.08,6.46-6,13.21c19.9,5,37.5,5.47,53.06,2.58Zm-54.43-5.42q2.7-6.18,5.54-12.11c-2.39-7.39-4.16-20.2-5-27.38-.08.88-.16,1.76-.23,2.65q-.74,9.23-.78,19.17,0,8.53.49,17.67Zm1.23-46.2a1.24,1.24,0,0,1,1,1.15c0,.06,1.86,18.86,4.82,29.79q3.95-8,8.15-15.62a281.1,281.1,0,0,1-7.72-46.19A192,192,0,0,0,416,339.69Zm7.6-35.19a1.29,1.29,0,0,1,.78,1.14,275.58,275.58,0,0,0,7.27,46.4q6.61-11.7,13.7-22.31c-1.37-4.53-9.35-31.53-10.46-51.6q-3,5.42-5.57,11.3a156.52,156.52,0,0,0-5.72,15.07Zm13-29.39a1.34,1.34,0,0,1,.55,1.05c.62,18.16,7.64,43.3,9.92,51,5.62-8.29,11.4-16.08,17.27-23.41-10.49-24.8-12.07-45-12.31-50A132.07,132.07,0,0,0,436.6,275.1ZM454,251.59a1.39,1.39,0,0,1,.34.89c0,.06.22,21.54,11.71,49.19,7.68-9.44,15.51-18.08,23.28-26-4.71-11.82-9.26-41.27-9.87-45.29a130.47,130.47,0,0,0-18.38,14.11q-3.65,3.36-7.09,7.05Zm27.57-22.46a1.45,1.45,0,0,1,.13.42c0,.09,4.65,31.46,9.46,44.33A366.41,366.41,0,0,1,519.95,248c-3.41-15.15-3.33-31.59-3.29-34.24a152.91,152.91,0,0,0-15.49,5.42,140.45,140.45,0,0,0-19.62,9.93Zm37.42-16a1.41,1.41,0,0,1,0,.34c0,.05-.4,17,3,32.91,10-8,19.43-14.59,27.81-20a105,105,0,0,1-.33-18.69,172.15,172.15,0,0,0-30.5,5.44Zm32.85-5.64a1.57,1.57,0,0,1,0,.2A103.47,103.47,0,0,0,552,225a263.35,263.35,0,0,1,31.23-17.29c-5-.43-10-.67-15-.73Q560,206.87,551.82,207.48Z"/><path class="cls-6" d="M695.33,500H52.87a4.72,4.72,0,0,1-4.43-4.94h0a4.72,4.72,0,0,1,4.43-4.94H695.33a4.72,4.72,0,0,1,4.43,4.94h0A4.72,4.72,0,0,1,695.33,500Z"/><path class="cls-6" d="M37.67,500h-9a4.72,4.72,0,0,1-4.43-4.94h0a4.72,4.72,0,0,1,4.43-4.94h9a4.72,4.72,0,0,1,4.43,4.94h0A4.72,4.72,0,0,1,37.67,500Z"/><path class="cls-6" d="M745.57,500H718.78a4.72,4.72,0,0,1-4.43-4.94h0a4.72,4.72,0,0,1,4.43-4.94h26.79a4.72,4.72,0,0,1,4.43,4.94h0A4.72,4.72,0,0,1,745.57,500Z"/><polygon class="cls-7" points="160.94 160.88 178.38 212.54 217.7 182.59 228.78 135.26 223.41 124.64 179.03 129.38 165.01 141.9 160.94 160.88"/><path class="cls-4" d="M169.92,152c3.23,0,5.86-2.94,5.86-6.54s-2.63-6.54-5.86-6.54-5.86,2.94-5.86,6.54S166.69,152,169.92,152Z"/><path class="cls-8" d="M114.92,170.38l33.55-42.64a.56.56,0,0,1,.85-.06l2,2a.73.73,0,0,1,.06,1l-33.55,42.64a.56.56,0,0,1-.86.07l-2-2a.73.73,0,0,1-.06-1ZM149,129.15l-32.75,41.62,1.09,1.06,32.75-41.62Z"/><path class="cls-6" d="M148.62,126.54a3.47,3.47,0,0,1,3.78,3.27,3.71,3.71,0,0,1-2.93,4.22,3.48,3.48,0,0,1-3.78-3.27A3.71,3.71,0,0,1,148.62,126.54Z"/><path class="cls-8" d="M114.9,170.58l23.59,50.26a.58.58,0,0,0,.82.29l2.35-1.37a.72.72,0,0,0,.26-.91l-23.59-50.25a.58.58,0,0,0-.82-.29l-2.35,1.37a.72.72,0,0,0-.26.91Zm24.38,49-23-49.06,1.28-.75,23,49.06Z"/><path class="cls-6" d="M138.38,222.05a3.29,3.29,0,0,0,4.36-2.18,3.92,3.92,0,0,0-2-4.87,3.29,3.29,0,0,0-4.36,2.18A3.92,3.92,0,0,0,138.38,222.05Z"/><path class="cls-6" d="M116.82,167a3.48,3.48,0,0,1,3.78,3.27,3.71,3.71,0,0,1-2.93,4.22,3.47,3.47,0,0,1-3.78-3.27A3.71,3.71,0,0,1,116.82,167Z"/><path class="cls-9" d="M137.53,232.55h43.37c3.46,0,6.29-3.15,6.29-7h0c0-3.86-2.83-7-6.29-7H137.53c-3.46,0-6.29,3.16-6.29,7h0C131.25,229.4,134.08,232.55,137.53,232.55Z"/><path class="cls-10" d="M108.69,232.55h43.37c3.46,0,6.29-3.15,6.29-7h0c0-3.86-2.83-7-6.29-7H108.69c-3.46,0-6.29,3.16-6.29,7h0C102.41,229.4,105.24,232.55,108.69,232.55Z"/><path class="cls-10" d="M178.89,130l-18,30.88a.84.84,0,0,1-.83.44.88.88,0,0,1-.73-.62L149,131.27a1.05,1.05,0,0,1,.08-.9.85.85,0,0,1,.7-.45l28.33-1.44a.85.85,0,0,1,.81.49A1.06,1.06,0,0,1,178.89,130Z"/><polygon class="cls-4" points="158.9 159.34 157.38 155.03 172.65 128.76 176.8 128.55 158.9 159.34"/><path class="cls-10" d="M151.91,126.56l7.39,5.35a5.28,5.28,0,0,1,1.3,6.8h0a4.15,4.15,0,0,1-6.09,1.45l-7.39-5.35a5.28,5.28,0,0,1-1.3-6.8h0A4.15,4.15,0,0,1,151.91,126.56Z"/><path class="cls-6" d="M148.45,129.84a1.68,1.68,0,0,1,.41,2.17,1.32,1.32,0,0,1-1.94.46,1.68,1.68,0,0,1-.42-2.17A1.32,1.32,0,0,1,148.45,129.84Z"/><path class="cls-4" d="M192,162.65a1.23,1.23,0,1,0-2.45,0v3.21h-2.88a1.37,1.37,0,0,0,0,2.73h2.88v3.21a1.23,1.23,0,1,0,2.45,0v-3.21h2.88a1.37,1.37,0,0,0,0-2.73H192Z"/><path class="cls-4" d="M174.85,156.76a1.23,1.23,0,1,0-2.45,0V160h-2.88a1.37,1.37,0,0,0,0,2.73h2.88v3.21a1.23,1.23,0,1,0,2.45,0V162.7h2.88a1.37,1.37,0,0,0,0-2.73h-2.88Z"/><path class="cls-4" d="M215.73,135.32a1.23,1.23,0,1,0-2.45,0v3.21H210.4a1.37,1.37,0,0,0,0,2.73h2.88v3.21a1.23,1.23,0,1,0,2.45,0v-3.21h2.88a1.37,1.37,0,0,0,0-2.73h-2.88Z"/><path class="cls-4" d="M192.52,141.17a.54.54,0,1,0-1.07,0v1.41h-1.26a.6.6,0,0,0,0,1.2h1.26v1.41a.54.54,0,1,0,1.07,0v-1.41h1.26a.6.6,0,0,0,0-1.2h-1.26Z"/><path class="cls-4" d="M180.12,173a.54.54,0,1,0-1.07,0v1.41h-1.26a.6.6,0,0,0,0,1.2H179V177a.54.54,0,1,0,1.07,0v-1.41h1.26a.6.6,0,0,0,0-1.2h-1.26Z"/><path class="cls-4" d="M205.76,157.51a.54.54,0,1,0-1.08,0v1.41h-1.26a.6.6,0,0,0,0,1.2h1.26v1.41a.54.54,0,1,0,1.08,0v-1.41H207a.6.6,0,0,0,0-1.2h-1.26Z"/><path class="cls-4" d="M179.26,144.57a.54.54,0,1,0-1.07,0V146h-1.26a.6.6,0,0,0,0,1.2h1.26v1.41a.54.54,0,1,0,1.07,0v-1.41h1.26a.6.6,0,0,0,0-1.2h-1.26Z"/><path class="cls-4" d="M203.33,130.27a.54.54,0,1,0-1.07,0v1.41H201a.6.6,0,0,0,0,1.2h1.26v1.41a.54.54,0,1,0,1.07,0v-1.41h1.26a.6.6,0,0,0,0-1.2h-1.26Z"/><path class="cls-4" d="M225.5,161.18a.54.54,0,1,0-1.07,0v1.41h-1.26a.6.6,0,0,0,0,1.2h1.26v1.41a.54.54,0,1,0,1.07,0v-1.41h1.27a.6.6,0,0,0,0-1.2H225.5Z"/><path class="cls-4" d="M195.54,196a.54.54,0,1,0-1.07,0v1.41H193.2a.6.6,0,0,0,0,1.2h1.26V200a.54.54,0,1,0,1.07,0v-1.41h1.26a.6.6,0,0,0,0-1.2h-1.26Z"/><path class="cls-4" d="M217.7,181.19a.54.54,0,1,0-1.07,0v1.41h-1.26a.6.6,0,0,0,0,1.2h1.26v1.41a.54.54,0,1,0,1.07,0v-1.41H219a.6.6,0,0,0,0-1.2H217.7Z"/><path class="cls-11" d="M505.76,247.73c-.24-4-3.33-7-6.9-6.73s-6.27,3.71-6,7.69c.94,15.3,2.44,32.31,4.64,51.18H379.81c2.33-18.77,4.18-35.68,5.65-50.9.38-4-2.2-7.53-5.76-8s-6.75,2.45-7.13,6.42c-2.89,30.06-7.31,66.71-13.9,111.24-5.61,37.91-12.78,81.48-21.89,131.45H350c8.93-49.11,16-91.9,21.47-129.13q3.69-24.93,6.51-46.65H499.25q2.82,21.82,6.91,46.79c6.13,37.27,14.55,80,25.91,129h13.37c-11.7-50.12-20.32-93.72-26.55-131.59-3.07-18.66-5.55-35.92-7.54-51.9a8.32,8.32,0,0,0-.13-1C508.56,284,506.81,264.81,505.76,247.73Z"/><path class="cls-6" d="M237.73,318.23a3.45,3.45,0,1,0-6.86,0V490.14h6.86V439.28h52.61v50.86h6.86V318.23a3.45,3.45,0,1,0-6.86,0v99.39H237.73V318.23Zm52.61,113.39H237.73V422.4h52.61Z"/><path class="cls-12" d="M178.26,318.23a3.45,3.45,0,1,0-6.86,0V490.14h6.86V439.28h52.61v50.86h6.86V318.23a3.45,3.45,0,1,0-6.86,0v99.39H178.26V318.23Zm52.61,113.39H178.26V422.4h52.61Z"/><path class="cls-6" d="M303.62,318.23H169.31A4.6,4.6,0,0,0,165,323h0a4.59,4.59,0,0,0,4.31,4.81H303.62a4.59,4.59,0,0,0,4.31-4.81h0A4.6,4.6,0,0,0,303.62,318.23Z"/><path class="cls-13" d="M308.51,313.42H163.59a4.6,4.6,0,0,0-4.31,4.81h0a4.6,4.6,0,0,0,4.31,4.81H308.51a4.6,4.6,0,0,0,4.31-4.81h0A4.6,4.6,0,0,0,308.51,313.42Z"/><path class="cls-14" d="M220.69,313.42H163.59a4.6,4.6,0,0,0-4.31,4.81h0a4.6,4.6,0,0,0,4.31,4.81h57.09a4.6,4.6,0,0,0,4.31-4.81h0A4.6,4.6,0,0,0,220.69,313.42Z"/><path class="cls-10" d="M304.57,188.59c12.45,3.42,37.57,9,45.55,20.45,5.21,7.47,5.94,16.5-2.68,16.5H303.61Z"/><path class="cls-10" d="M216.19,250l-16.84,16.43s-9.71-29.9-.12-56,46.06-28.13,61.1-29.71,34.23,44.84,34.23,44.84Z"/><path class="cls-6" d="M277.93,271s32,8.1,36,9.16S328.88,293.36,330.8,305s19.64,160,19.64,160-4.57,8.86-5.17,9-9.27-4.43-9.27-4.43-30.83-125.71-34.39-136.83-2.63-19.34-13.52-19.34H255.35l-8.48-32.16,3.41-3.7c-3.71.2-6.6.23-7.09-.1-1.54-1.06-25.86-11-25.86-11s17.44-5.82,19-6.49,26.63-3,26.63-3,.06,7.67,1.31,9.33a8.15,8.15,0,0,0,3.91,2.34h0Z"/><path class="cls-10" d="M201.3,233.39c-.26,10.11-.55,20.71-2,26.24a25.81,25.81,0,0,1,.05,6.83l-.23.74c.19.81.37,1.32.37,1.32,4,3.42,8.27,3.55,13.17,5.61l0-.73-.2-1,14.27,7.7c4.83-.56,35.55-2.76,43.23-11-.68-8.07,30-30.67,38.44-32.85Z"/><path class="cls-15" d="M346.8,467.48s1.36-3.42,4.68-2.39,23,13.11,26.09,14.61,6.32,7.18,3.89,10.44H334.65c-2.77-1.85-5.43-8.26-2.58-19.4S334.23,471.31,346.8,467.48Z"/><path class="cls-16" d="M346.8,467.48s1.36-3.42,4.68-2.39c2.07.64,10.48,5.56,17.28,9.55-2,1.67-6.23,3.12-7.19,2.9C360.36,477.26,346.8,467.48,346.8,467.48Z"/><path class="cls-17" d="M331.61,490.11h50.62a1.46,1.46,0,0,0,1.37-1.53v-2.84a1.46,1.46,0,0,0-1.37-1.53H331.61a1.46,1.46,0,0,0-1.37,1.53v2.84A1.46,1.46,0,0,0,331.61,490.11Z"/><path class="cls-18" d="M209,313.36c-18.39,0-19.12-35.83-9.68-46.9a19.39,19.39,0,0,0,12.32,4.13c12.5-.15,41.76-8,50.7,5.36s12.21,35.64,7,68.14-18,125.9-18,125.9l-14.76-1.42s2.18-131.76,2.42-138.77-3.08-16.36-9.85-16.36S209,313.36,209,313.36Z"/><path class="cls-15" d="M248.41,468.48s-5.58-7.74-12.4-1.58a10.56,10.56,0,0,0-5.11,5.6c-1.4,3.92-4,5.69-4.49,10s.62,7.65,5.5,7.65h7.9c3.49,0,8.68.65,10.46-4.57s0-10,.62-12.68S248.41,468.48,248.41,468.48Z"/><path class="cls-16" d="M248.41,468.48s-5.58-7.74-12.4-1.58a9.66,9.66,0,0,0-1.64,1c-.4,3.39-.72,7-.43,7.93.59,1.85,9.4,1.45,10.64.79.93-.49,3-5.5,4.05-8Z"/><path class="cls-17" d="M226.93,490.11H250a1.46,1.46,0,0,0,1.37-1.53v-2.84a1.47,1.47,0,0,0-1.37-1.53H226.93a1.46,1.46,0,0,0-1.37,1.53v2.84A1.46,1.46,0,0,0,226.93,490.11Z"/><path class="cls-11" d="M288.16,273.6c-.47.58-1,1.21-1.42,1.88a29,29,0,0,0-5.2,9.84.51.51,0,0,0,.28.63.44.44,0,0,0,.56-.32c.15-.51.31-1,.49-1.49a.45.45,0,0,0,.19.14.44.44,0,0,0,.56-.32,27.63,27.63,0,0,1,3.8-7.87c.66-.82,1.32-1.55,1.94-2.2l-1.22-.31Zm2.63.67,1.55.39a30.06,30.06,0,0,0-2.32,2.75,27.63,27.63,0,0,0-3.8,7.86.45.45,0,0,1-.45.34l-.15.5a.44.44,0,0,1-.56.32.45.45,0,0,1-.23-.19l0,.08a.44.44,0,0,1-.56.32.51.51,0,0,1-.28-.63,29.51,29.51,0,0,1,6.85-11.74Zm1.94.49,1.61.41a29.31,29.31,0,0,0-6.71,9.65c-.19.52-.37,1-.53,1.6a.49.49,0,0,1-.17.25c-.1.31-.2.63-.3.95a.44.44,0,0,1-.56.32.51.51,0,0,1-.28-.63,27.77,27.77,0,0,1,1-2.88,29.71,29.71,0,0,1,5.92-9.66Zm2,.52,1.19.3a30.16,30.16,0,0,0-3.74,4.42,27.5,27.5,0,0,0-3.41,7.28.47.47,0,0,1-.31.33l-.08.25a.43.43,0,0,1-.56.32.51.51,0,0,1-.28-.63,28.64,28.64,0,0,1,3.93-8.13,30.94,30.94,0,0,1,3.26-4.13Zm3,.77a29.88,29.88,0,0,0-8.21,13.1.51.51,0,0,0,.28.63.44.44,0,0,0,.56-.32,28.87,28.87,0,0,1,8-12.68,31.51,31.51,0,0,0-3.32,4,28.73,28.73,0,0,0-4.14,8.43.51.51,0,0,0,.28.63l.08,0h0l-.11.35h0a.51.51,0,0,0,.28.63.44.44,0,0,0,.56-.31l.14-.46h0v0l.14-.42v0q.15-.45.32-.88h0l.17-.43h0l.17-.41v0h0l.17-.4v0l.18-.4,0,0,.16-.35,0-.09.15-.31,0-.08.16-.31.05-.1.15-.28.06-.11.14-.26.08-.15.13-.22.08-.14.13-.23.09-.14L295,284l.1-.17.11-.17v0a28.1,28.1,0,0,0-2.49,5.83.51.51,0,0,0,.28.63h0c-.09.29-.19.57-.27.87a.51.51,0,0,0,.28.63.44.44,0,0,0,.56-.32l.07-.24a.47.47,0,0,0,.31-.33c.12-.4.25-.79.38-1.17a.51.51,0,0,0,.29.59.44.44,0,0,0,.56-.32,28.74,28.74,0,0,1,7.55-12.29l.2-.16-1.33-.34-.48.45.47-.45-3.83-1Zm5.25,1.33a29.77,29.77,0,0,0-7.81,12.72.51.51,0,0,0,.28.63.44.44,0,0,0,.56-.32l.11-.35a.46.46,0,0,0,.27.29A.44.44,0,0,0,297,290a28.73,28.73,0,0,1,7.54-12.28l-1.52-.39Zm1.9.48,3.79,1a29,29,0,0,0-8.65,13.3.44.44,0,0,1-.56.32.45.45,0,0,1-.24-.21.41.41,0,0,1-.45.12.51.51,0,0,1-.28-.63,29.23,29.23,0,0,1,5.87-10.65,28.35,28.35,0,0,0-6.14,10.82.44.44,0,0,1-.56.32.51.51,0,0,1-.28-.63l0-.13a.4.4,0,0,1-.36,0,.51.51,0,0,1-.28-.63,29.85,29.85,0,0,1,8.1-13Zm4,1,1.12.29A29.07,29.07,0,0,0,301,292.86a.44.44,0,0,1-.56.32.51.51,0,0,1-.28-.63A30,30,0,0,1,309,278.89Z"/><path class="cls-11" d="M264.19,379a30.69,30.69,0,0,0-14.77-.11.74.74,0,0,0-.47.68.37.37,0,0,0,.49.39q.77-.23,1.52-.4a.72.72,0,0,0-.06.28.37.37,0,0,0,.49.39,22.12,22.12,0,0,1,8.48-.88,21.83,21.83,0,0,1,4.11,1.18l.22-1.54Zm-.44,3-.25,1.71a18.93,18.93,0,0,0-12.39,0,.36.36,0,0,1-.47-.26l-.51.14a.37.37,0,0,1-.49-.39.72.72,0,0,1,.1-.36l-.09,0a.37.37,0,0,1-.48-.39.73.73,0,0,1,.47-.68,22.67,22.67,0,0,1,14.1.24Zm-.31,2.13a22.59,22.59,0,0,0-11.35-.36,24.51,24.51,0,0,0-3,.7.72.72,0,0,0-.47.68.37.37,0,0,0,.49.39l1-.27a.37.37,0,0,0,.29,0c.55-.17,1.1-.31,1.64-.43A21.79,21.79,0,0,1,263.18,386l.26-1.8Zm-.32,2.27-.19,1.31a21.84,21.84,0,0,0-4.91-1,22.2,22.2,0,0,0-7.81.93.35.35,0,0,1-.41-.13l-.25.08a.37.37,0,0,1-.49-.39.73.73,0,0,1,.47-.68,22.91,22.91,0,0,1,8.76-.91,22.66,22.66,0,0,1,4.82.83Zm-.48,3.32-.17,1.17a21.85,21.85,0,0,0-13.67-.25.37.37,0,0,1-.49-.39.73.73,0,0,1,.47-.68,22.69,22.69,0,0,1,13.85.15Zm-.17,1.21a22.61,22.61,0,0,0-4.16-.78,22.87,22.87,0,0,0-9.11.88.73.73,0,0,0-.47.68.46.46,0,0,0,0,.1h0l-.35.1h0a.73.73,0,0,0-.47.68.37.37,0,0,0,.49.39l.47-.14h0l.43-.12h0l.91-.21h0l.45-.09h0l.43-.08h0l.43-.07h0l.42-.06h0l.38,0h.1l.34,0H253l.34,0h.11l.31,0h2a23.3,23.3,0,0,0-6.17,1,.73.73,0,0,0-.47.68h0l-.88.25a.72.72,0,0,0-.47.68.37.37,0,0,0,.49.39l.25-.07a.35.35,0,0,0,.4.12c.4-.12.8-.23,1.2-.33a.74.74,0,0,0-.43.67.37.37,0,0,0,.49.39,21.88,21.88,0,0,1,11.63-.35l.65-4.55Zm-.67,4.69-.25,1.72a22,22,0,0,0-10.94.51.37.37,0,0,1-.49-.39.74.74,0,0,1,.17-.46l-.35.1a.37.37,0,0,1-.49-.39.72.72,0,0,1,.47-.68,22.69,22.69,0,0,1,11.88-.41Zm-.3,2.11a22.75,22.75,0,0,0-11.7.45.72.72,0,0,0-.47.68.42.42,0,0,0,.16.35l-.13,0a.73.73,0,0,0-.47.68.37.37,0,0,0,.49.39,21.91,21.91,0,0,1,11.8-.31l.32-2.28Zm-.32,2.28-.26,1.85a21.92,21.92,0,0,0-11.11.47.37.37,0,0,1-.49-.39.73.73,0,0,1,.1-.37.39.39,0,0,1-.26-.4.72.72,0,0,1,.47-.68,22.72,22.72,0,0,1,11.55-.48Zm-.3,2.15a22.73,22.73,0,0,0-11.42.51.72.72,0,0,0-.47.68.37.37,0,0,0,.49.39,22,22,0,0,1,11.24-.44Z"/><path class="cls-11" d="M332.1,314.53a22.23,22.23,0,0,0-6.22-.2,23.16,23.16,0,0,0-10.49,2.77.77.77,0,0,0-.35.77.36.36,0,0,0,.54.29q.72-.38,1.43-.7a.71.71,0,0,0,0,.29.35.35,0,0,0,.54.29,22.68,22.68,0,0,1,8.2-2.56,20.65,20.65,0,0,1,6.61.94l-.24-1.88Zm.43,3.32.22,1.75A21.17,21.17,0,0,0,326,319a22.61,22.61,0,0,0-8.19,2.56.35.35,0,0,1-.5-.16l-.47.25a.36.36,0,0,1-.54-.29.75.75,0,0,1,0-.38l-.08,0a.36.36,0,0,1-.54-.29.76.76,0,0,1,.35-.76,22.62,22.62,0,0,1,16.45-2.07Zm.26,2.06a22.57,22.57,0,0,0-14,1.49,24.44,24.44,0,0,0-2.82,1.28.76.76,0,0,0-.35.76.36.36,0,0,0,.54.29l.91-.46a.37.37,0,0,0,.29,0q.78-.41,1.54-.75a21.42,21.42,0,0,1,14.14-.46l-.27-2.12Zm.3,2.34a22.26,22.26,0,0,0-7.88-.31,23.4,23.4,0,0,0-8.48,2.64.76.76,0,0,0-.35.76.36.36,0,0,0,.54.29l.24-.12a.34.34,0,0,0,.42,0,22.69,22.69,0,0,1,7.53-2.47,21.14,21.14,0,0,1,8.17.69l-.19-1.53Zm.46,3.62.31,2.5c-.36-.11-.8-.23-1.31-.35h.07l.07,0,.07,0h.07l.06,0,.13,0h0l.11,0,.06,0h.06l.06,0h.11l.06,0,.06,0h.05l.05,0h.1l0,0h.06l.22,1.73a19.89,19.89,0,0,0-2.36-.49,20,20,0,0,1,2.36.51l.4,3.18a21.93,21.93,0,0,0-14.87,2.24.36.36,0,0,1-.54-.29.76.76,0,0,1,.09-.49l-.33.17a.36.36,0,0,1-.54-.29.76.76,0,0,1,.35-.76,22.78,22.78,0,0,1,14.81-2.43l-.95-.27a22,22,0,0,0-13.63,2.46.36.36,0,0,1-.54-.29.77.77,0,0,1,.32-.74q-.56.26-1.12.56a.34.34,0,0,1-.42,0l-.23.12a.36.36,0,0,1-.54-.29.77.77,0,0,1,.35-.76l.83-.42h0a.76.76,0,0,1,.35-.76,23.93,23.93,0,0,1,5.91-2.21h0l-.19,0-.19,0-.23,0-.16,0-.25.05-.16,0-.24.05-.16,0-.28.07-.12,0-.3.08-.11,0-.33.09-.09,0-.33.1-.09,0-.36.12,0,0-.4.14h0l-.41.15h0l-.41.16h0l-.43.18h0l-.86.39,0,0-.4.2h0l-.44.22a.36.36,0,0,1-.54-.29.76.76,0,0,1,.35-.76h0l.33-.17h0l0-.1a.76.76,0,0,1,.35-.76,23.4,23.4,0,0,1,8.82-2.68,22.55,22.55,0,0,1,4.89,0,22,22,0,0,0-14.16,2.37.36.36,0,0,1-.54-.29.76.76,0,0,1,.35-.77,22.53,22.53,0,0,1,17.05-1.9Zm1,7.9A22.71,22.71,0,0,0,318.87,336a.76.76,0,0,0-.35.76.4.4,0,0,0,.21.31l-.12.06a.76.76,0,0,0-.35.76.36.36,0,0,0,.54.29,22.21,22.21,0,0,1,11.75-2.65,23.09,23.09,0,0,0-11.48,2.77.76.76,0,0,0-.35.76.37.37,0,0,0,.32.34.74.74,0,0,0,0,.39.36.36,0,0,0,.54.29A21.87,21.87,0,0,1,335.06,338l-.53-4.27Zm.56,4.54.15,1.26a21.85,21.85,0,0,0-15.82,2,.36.36,0,0,1-.54-.29.77.77,0,0,1,.35-.76A22.69,22.69,0,0,1,335.1,338.31Z"/><path class="cls-11" d="M235.94,247.73c-.24-4-3.33-7-6.9-6.73s-6.27,3.71-6,7.69c.94,15.3,2.44,32.31,4.64,51.18H110c2.33-18.77,4.19-35.68,5.65-50.9.38-4-2.2-7.53-5.76-8s-6.75,2.45-7.13,6.42c-2.89,30.06-7.31,66.71-13.9,111.24C83.24,396.6,76.07,440.17,67,490.14H80.16c8.93-49.11,16-91.9,21.47-129.13q3.69-24.93,6.51-46.65H229.43q2.83,21.82,6.91,46.79c6.13,37.27,14.55,80,25.91,129h13.37c-11.7-50.12-20.32-93.72-26.55-131.59-3.07-18.66-5.55-35.92-7.54-51.9a7.85,7.85,0,0,0-.13-1C238.73,284,237,264.81,235.94,247.73Z"/><path class="cls-13" d="M513.73,230.91H218.63c-3.44,0-6.25,3.14-6.25,7v15.68c0,3.83,2.81,7,6.25,7H513.73c3.44,0,6.25-3.14,6.25-7V237.88C520,234,517.17,230.91,513.73,230.91Z"/><path class="cls-6" d="M513.71,230.91H153.46c-3.45,0-6.27,3.14-6.27,7v9.29H520v-9.29C520,234,517.16,230.91,513.71,230.91Z"/><path class="cls-13" d="M520,225.54H212.41c-3.72,0-6.77,3.4-6.77,7.55h0c0,4.15,3,7.55,6.77,7.55H520c3.72,0,6.77-3.4,6.77-7.55h0C526.72,228.94,523.67,225.54,520,225.54Z"/><path class="cls-14" d="M237.75,230.91H102.4c-3.44,0-6.25,3.14-6.25,7v15.68c0,3.83,2.81,7,6.25,7H237.75c3.44,0,6.25-3.14,6.25-7V237.88C244,234,241.18,230.91,237.75,230.91Z"/><path class="cls-11" d="M234.76,230.91H105.39c-5.08,0-9.24,3.14-9.24,7v9.29H244v-9.29C244,234,239.84,230.91,234.76,230.91Z"/><path class="cls-14" d="M244,225.54H92.45c-3.72,0-6.77,3.4-6.77,7.55h0c0,4.15,3,7.55,6.77,7.55H244c3.72,0,6.77-3.4,6.77-7.55h0C250.77,228.94,247.72,225.54,244,225.54Z"/><path class="cls-19" d="M316.64,225.54s-6.56-8.31-5-18.12,1.76-28.72-7.52-34.07-20.62-4.62-25.59,3c0,0-2.64-4.19-5.6-4s-.48,5.44.24,6.06c-30.36-10.53-3.28,40.17-24.79,47.11Z"/><path class="cls-6" d="M316.64,225.54s-6.56-8.31-5-18.12c.22-1.32.4-2.81.55-4.41-10,4-33.6,11.58-44.33-.48a41.1,41.1,0,0,1-9.58-19.13c-2.8,10.41,2.85,30.71-5,39.13,2.52.78,5.37,1.72,8.56,3Z"/><path class="cls-20" d="M349,225.54c6.12-5.26,2.55-23.1-12.29-18.24-10.55,3.45-28.43,10.43-30.64,11-3,.71-9.77,0-11.48,0a6.94,6.94,0,0,0-6.08,7.29H349Z"/><path class="cls-20" d="M205.49,225.54a8.86,8.86,0,0,1-4-8.57c.47-6.15,7.09-12.26,12.09-12.88s59.2,12.92,64.28,13.68,16.47,0,19.36,0,10.25,2,10.25,7.77h-102Z"/><path class="cls-21" d="M356.43,177.08s-.81-3.26-3.27-3.4-3.4,3.26-2.67,3.67S356.43,177.08,356.43,177.08Z"/><path class="cls-21" d="M354.29,182.88l.67-.15h0l2.28-.52c-2.73,8.34-10.34,7.14-7.34.72l3.76-.86v.43a.4.4,0,0,0,.51.42Z"/><path class="cls-4" d="M471.49,103.23H364.69c-2.93,0-5.83,2.67-6.44,5.95L343.2,189.83c-.61,3.27,1.29,5.95,4.22,5.95h106.8c2.93,0,5.83-2.68,6.44-5.95l15.05-80.65C476.33,105.91,474.43,103.23,471.49,103.23Z"/><path class="cls-22" d="M471.49,103.23H368.2c-2.93,0-5.83,2.67-6.44,5.95L346.7,189.83c-.61,3.27,1.29,5.95,4.22,5.95h103.3c2.93,0,5.83-2.68,6.44-5.95l15.05-80.65C476.33,105.91,474.43,103.23,471.49,103.23Z"/><path class="cls-23" d="M386.44,195.78h26.17a11.21,11.21,0,0,0,.74-2.15c0-1.16-6-21.24-14.73-24.39l-5.09-.13Z"/><path class="cls-24" d="M461.62,159.42H357.9a2.78,2.78,0,0,0-2.5,2.3h0A1.78,1.78,0,0,0,357,164H460.76a2.78,2.78,0,0,0,2.5-2.3h0A1.78,1.78,0,0,0,461.62,159.42Z"/><path class="cls-24" d="M459.15,166.43H357.76a4.35,4.35,0,0,0-3.9,3.6l-3.51,18.83c-.37,2,.78,3.6,2.56,3.6H454.29a4.35,4.35,0,0,0,3.91-3.6L461.71,170C462.07,168.06,460.92,166.43,459.15,166.43Z"/><path class="cls-23" d="M387.32,192.47H413.1c-1.22-4.54-6.8-20.46-14.48-23.23l-5.09-.13Z"/><path class="cls-23" d="M458.33,122h-17.6a2.66,2.66,0,0,0-2.39,2.2L433,152.64a1.7,1.7,0,0,0,1.56,2.2h17.6a2.66,2.66,0,0,0,2.39-2.2l5.31-28.44A1.7,1.7,0,0,0,458.33,122Z"/><path class="cls-24" d="M460.66,122h-17.6a2.66,2.66,0,0,0-2.39,2.2l-5.31,28.44a1.7,1.7,0,0,0,1.56,2.2h17.6a2.66,2.66,0,0,0,2.39-2.2l5.31-28.44A1.7,1.7,0,0,0,460.66,122Z"/><path class="cls-23" d="M456.19,138.41h0a1.42,1.42,0,0,0-1.27,1.18l-1.84,9.87a.91.91,0,0,0,.83,1.18h0a1.42,1.42,0,0,0,1.27-1.18l1.84-9.87A.91.91,0,0,0,456.19,138.41Z"/><path class="cls-23" d="M451.22,138.41h0a1.42,1.42,0,0,0-1.27,1.18l-1.84,9.87a.91.91,0,0,0,.83,1.18h0a1.42,1.42,0,0,0,1.27-1.18l1.84-9.87A.91.91,0,0,0,451.22,138.41Z"/><path class="cls-23" d="M446.24,138.41h0a1.42,1.42,0,0,0-1.27,1.18l-1.84,9.87a.91.91,0,0,0,.83,1.18h0a1.42,1.42,0,0,0,1.27-1.18l1.84-9.87A.91.91,0,0,0,446.24,138.41Z"/><path class="cls-23" d="M441.27,138.41h0a1.42,1.42,0,0,0-1.27,1.18l-1.84,9.87a.91.91,0,0,0,.83,1.18h0a1.42,1.42,0,0,0,1.27-1.18l1.84-9.87A.91.91,0,0,0,441.27,138.41Z"/><path class="cls-24" d="M470.78,110.34H367.06a2.78,2.78,0,0,0-2.5,2.3h0a1.78,1.78,0,0,0,1.64,2.3H469.92a2.78,2.78,0,0,0,2.49-2.3h0A1.78,1.78,0,0,0,470.78,110.34Z"/><path class="cls-23" d="M458.17,168.53H357.95a1.09,1.09,0,0,0-1,.9h0a.7.7,0,0,0,.64.9H457.84a1.09,1.09,0,0,0,1-.9h0a.7.7,0,0,0-.64-.9Zm-3.6,19.28H354.35a1.09,1.09,0,0,0-1,.9h0a.7.7,0,0,0,.64.9H454.24a1.08,1.08,0,0,0,1-.9h0a.69.69,0,0,0-.64-.9Zm.72-3.86H355.07a1.09,1.09,0,0,0-1,.9h0a.7.7,0,0,0,.64.9H455a1.09,1.09,0,0,0,1-.9h0a.7.7,0,0,0-.64-.9Zm.72-3.86H355.79a1.09,1.09,0,0,0-1,.9h0a.7.7,0,0,0,.64.9H455.68a1.09,1.09,0,0,0,1-.9h0a.7.7,0,0,0-.64-.9Zm.72-3.86H356.51a1.09,1.09,0,0,0-1,.9h0a.7.7,0,0,0,.64.9H456.4a1.09,1.09,0,0,0,1-.9h0a.7.7,0,0,0-.64-.9Zm.72-3.86H357.23a1.09,1.09,0,0,0-1,.9h0a.7.7,0,0,0,.64.9H457.12a1.09,1.09,0,0,0,1-.9h0A.7.7,0,0,0,457.45,172.39Z"/><path class="cls-25" d="M393.21,170.34h7.5a9.23,9.23,0,0,0-2.09-1.1l-5.09-.13-.33,1.23Zm-.55,2.05-.48,1.8h12.4a23.39,23.39,0,0,0-1.53-1.8Zm-1,3.86-.48,1.8h16c-.35-.61-.72-1.22-1.1-1.8Zm-1,3.86-.48,1.8h19c-.28-.6-.58-1.2-.89-1.8Zm-1,3.86-.48,1.8h21.7c-.23-.59-.49-1.19-.75-1.8Zm-1,3.86-.48,1.8h24.14c-.19-.56-.4-1.17-.63-1.8Z"/><path class="cls-23" d="M370.52,136.41h-1.82a1.62,1.62,0,0,0-1.45,1.34l-1.1,5.88a1,1,0,0,0,.95,1.34h1.82a1.61,1.61,0,0,0,1.45-1.34l1.1-5.88A1,1,0,0,0,370.52,136.41Z"/><path class="cls-24" d="M373.67,123.76h-3.41a3,3,0,0,0-2.71,2.5l-2.06,11a1.93,1.93,0,0,0,1.78,2.5h3.41a3,3,0,0,0,2.71-2.5l2.06-11A1.93,1.93,0,0,0,373.67,123.76Z"/><path class="cls-24" d="M431.25,119.85H385.81a2.3,2.3,0,0,0-2.06,1.9l-5.68,30.45a1.47,1.47,0,0,0,1.35,1.9h45.44a2.29,2.29,0,0,0,2.06-1.9l5.68-30.45A1.47,1.47,0,0,0,431.25,119.85Z"/><path class="cls-4" d="M428,124.26H403.57a1.21,1.21,0,0,0-1.09,1h0a.77.77,0,0,0,.71,1h24.43a1.21,1.21,0,0,0,1.08-1h0A.77.77,0,0,0,428,124.26Z"/><path class="cls-23" d="M427.07,129.27H388.54a1.21,1.21,0,0,0-1.09,1h0a.77.77,0,0,0,.71,1h38.53a1.21,1.21,0,0,0,1.09-1h0A.77.77,0,0,0,427.07,129.27Z"/><path class="cls-23" d="M426.11,134.38H387.59a1.21,1.21,0,0,0-1.09,1h0a.77.77,0,0,0,.71,1h38.53a1.21,1.21,0,0,0,1.09-1h0A.77.77,0,0,0,426.11,134.38Z"/><path class="cls-23" d="M425.16,139.49H386.63a1.21,1.21,0,0,0-1.08,1h0a.77.77,0,0,0,.71,1h38.53a1.21,1.21,0,0,0,1.08-1h0A.77.77,0,0,0,425.16,139.49Z"/><path class="cls-23" d="M424.21,144.59H385.68a1.21,1.21,0,0,0-1.08,1h0a.77.77,0,0,0,.71,1h38.53a1.21,1.21,0,0,0,1.08-1h0A.77.77,0,0,0,424.21,144.59Z"/><path class="cls-23" d="M423.25,149.7H384.73a1.21,1.21,0,0,0-1.08,1h0a.77.77,0,0,0,.71,1h38.53a1.21,1.21,0,0,0,1.09-1h0A.77.77,0,0,0,423.25,149.7Z"/><path class="cls-23" d="M389.47,124.26h9.59a.77.77,0,0,1,.71,1h0a1.21,1.21,0,0,1-1.09,1H389.1a.77.77,0,0,1-.71-1h0A1.21,1.21,0,0,1,389.47,124.26Z"/><path class="cls-23" d="M397.35,169.85c-.84,0-2.18.24-2.18-.7a1.62,1.62,0,0,1,1.53-1.7H427c.91,0,5.88.19,6.29,6.75.13,2.18,1,9,1.89,16.4.91,7.18,2,15.27,2.57,19.77a28.8,28.8,0,0,1,.27,3.78,15.1,15.1,0,0,1-1.5,7.09,7.71,7.71,0,0,1-5.81,4.16,10.79,10.79,0,0,1-1.76.14H396.55a1.62,1.62,0,0,1-1.53-1.7c0-.94,1.4-.55,2.25-.55l5.46-1.15A8,8,0,0,0,404,222a4.78,4.78,0,0,0,3.63-2.54,11.55,11.55,0,0,0,1.06-5.34,25.3,25.3,0,0,0-.23-3.29c-.57-4.29-1.95-12.14-2.92-19.8-.94-7.46-1.78-14.39-1.92-16.64-.22-3.48-2.7-3.58-3.13-3.58h-.16Z"/><path class="cls-4" d="M395.06,170.85a1.71,1.71,0,0,1,0-3.41h3.1c.91,0,5.88.19,6.28,6.75.14,2.18,1,9,1.89,16.4.91,7.18,2,15.27,2.57,19.77a29.19,29.19,0,0,1,.27,3.78,15.08,15.08,0,0,1-1.5,7.09,7.71,7.71,0,0,1-5.8,4.16,10.81,10.81,0,0,1-1.76.14h-8.29a1.71,1.71,0,0,1,0-3.41h8.29a8,8,0,0,0,1.32-.1,4.78,4.78,0,0,0,3.63-2.54,11.55,11.55,0,0,0,1.06-5.34,25.3,25.3,0,0,0-.23-3.29c-.57-4.29-1.6-12.14-2.57-19.8-.94-7.46-1.78-14.39-1.92-16.64-.21-3.48-2.7-3.58-3.13-3.58h-3.21Z"/><path class="cls-26" d="M114.82,337.51c16.61-9.85,20.83,11.58,14.37,29.32s-39.6,77.41-41.33,101.08c-.67,9.17-2.21,8.17-3.52,1.74C77.8,437.57,92,351.07,114.82,337.51Z"/><path class="cls-27" d="M79.65,256.22c-19-19.13-31,7.65-27.66,33.47S81.44,406.6,76.72,438.52c-1.83,12.37.5,11.61,4.13,3.59C99,402.11,105.87,282.55,79.65,256.22Z"/><path class="cls-28" d="M76.33,447.39c.41,1.19,1.31.6,2.53-1.38,19.85-73.75-11.07-183.95-11.17-184.3a1,1,0,0,0-1.29-.76,1.18,1.18,0,0,0-.68,1.44C65.81,262.75,97.15,374.44,76.33,447.39Z"/><path class="cls-29" d="M38,317.5c-18.46-9-21.35,14.29-13.14,32.61s48,78.9,51.64,104c1.4,9.72,3,8.51,3.88,1.53C85,420.8,63.45,329.84,38,317.5Z"/><path class="cls-30" d="M78.23,460.82c.57.77,1.11.08,1.57-1.73-1.67-60.45-49.3-133.95-49.45-134.18a.76.76,0,0,0-1.13-.21A1,1,0,0,0,29,326C29.19,326.2,77.47,400.7,78.23,460.82Z"/><polygon class="cls-11" points="64.03 448.93 99.49 448.93 108.75 458.25 101.18 490.74 81.76 490.74 62.34 490.74 54.77 458.25 64.03 448.93"/><path class="cls-11" d="M54.77,435.34h54a3.13,3.13,0,0,1,2.94,3.28v14.86a3.13,3.13,0,0,1-2.94,3.28h-54a3.13,3.13,0,0,1-2.94-3.28V438.62A3.13,3.13,0,0,1,54.77,435.34Z"/><polygon class="cls-8" points="108.75 458.25 107.19 464.93 56.33 464.93 54.77 458.25 108.75 458.25"/><path class="cls-31" d="M149.48,41.77ZM153.19,26a6.63,6.63,0,0,1,10.09,0,8.62,8.62,0,0,1,0,11.25,6.63,6.63,0,0,1-10.09,0,8.62,8.62,0,0,1,0-11.25Zm1.54-7.89a11.85,11.85,0,0,0-2.8,1.33,12.88,12.88,0,0,0-2.45,2.06.4.4,0,0,1-.52.07l-3.32-2.14h0a.75.75,0,0,0-.6-.08.84.84,0,0,0-.5.43v0l-2.33,4.51a1,1,0,0,0-.08.7.91.91,0,0,0,.38.56l0,0,3.29,2.12a.51.51,0,0,1,.21.54h0a15.63,15.63,0,0,0-.28,1.68A15.69,15.69,0,0,0,146,35a.51.51,0,0,1-.23.55l-3.29,2.12h0a.91.91,0,0,0-.38.56,1,1,0,0,0,.08.7l2.35,4.53h0a.83.83,0,0,0,.5.42.74.74,0,0,0,.62-.09h0L149,41.7a.41.41,0,0,1,.52.07,12.91,12.91,0,0,0,2.45,2.06,11.87,11.87,0,0,0,2.82,1.33.48.48,0,0,1,.32.47V49.9a1,1,0,0,0,.24.65.78.78,0,0,0,.58.27h4.69a.78.78,0,0,0,.58-.27,1,1,0,0,0,.24-.65V45.63a.48.48,0,0,1,.34-.48,11.87,11.87,0,0,0,2.8-1.33A12.92,12.92,0,0,0,167,41.77a.4.4,0,0,1,.54-.06l3.29,2.12a.75.75,0,0,0,.62.09.83.83,0,0,0,.5-.42v0L174.29,39h0a1,1,0,0,0,.08-.69.91.91,0,0,0-.38-.56l-3.31-2.13a.51.51,0,0,1-.21-.54h0a15.55,15.55,0,0,0,.28-1.68,15.85,15.85,0,0,0,0-3.43,15.6,15.6,0,0,0-.28-1.68.51.51,0,0,1,.23-.55L174,25.57a.9.9,0,0,0,.38-.56,1,1,0,0,0-.08-.69v0l-2.33-4.51h0a.84.84,0,0,0-.5-.43.76.76,0,0,0-.62.09h0l-3.32,2.14a.4.4,0,0,1-.53-.08,12.93,12.93,0,0,0-2.44-2.05,11.91,11.91,0,0,0-2.81-1.33.48.48,0,0,1-.32-.47V13.39a1,1,0,0,0-.24-.65.78.78,0,0,0-.58-.27h-4.69a.78.78,0,0,0-.58.27,1,1,0,0,0-.24.65v4.27A.48.48,0,0,1,154.73,18.13Z"/><path class="cls-31" d="M200.48,63.65a16.85,16.85,0,0,1,5.46-4.07,15.23,15.23,0,0,1,12.85,0,16.85,16.85,0,0,1,5.46,4.07,19.06,19.06,0,0,1,3.65,6.09,20.77,20.77,0,0,1,0,14.33,19.08,19.08,0,0,1-3.65,6.09,16.84,16.84,0,0,1-5.46,4.07,15.22,15.22,0,0,1-12.85,0,16.86,16.86,0,0,1-5.46-4.07,19.06,19.06,0,0,1-3.65-6.09,20.78,20.78,0,0,1,0-14.33,19.05,19.05,0,0,1,3.65-6.09Zm6.05-2.47a15.31,15.31,0,0,0-4.95,3.7,17.29,17.29,0,0,0-3.31,5.52,18.93,18.93,0,0,0,0,13,17.27,17.27,0,0,0,3.31,5.52,15.26,15.26,0,0,0,5,3.7,13.87,13.87,0,0,0,11.67,0,15.25,15.25,0,0,0,5-3.7,17.27,17.27,0,0,0,3.31-5.52,18.95,18.95,0,0,0,0-13,17.28,17.28,0,0,0-3.31-5.52,15.29,15.29,0,0,0-4.95-3.7,13.88,13.88,0,0,0-11.67,0Zm-1.86-13.8a25.14,25.14,0,0,0-3.1,1.23,26.64,26.64,0,0,0-3,1.66,27.93,27.93,0,0,0-2.8,2.07,28.72,28.72,0,0,0-2.56,2.44,1.69,1.69,0,0,1-1,.53,1.62,1.62,0,0,1-1.1-.25c-2.47-1.59-5.06-3.16-7.48-4.82a1,1,0,0,0-.36-.12,1,1,0,0,0-.79.24,1.16,1.16,0,0,0-.27.35c-1.8,3-3.61,7-5.27,10.18a1.23,1.23,0,0,0-.13.43,1.39,1.39,0,0,0,0,.47,1.29,1.29,0,0,0,.18.42,1.09,1.09,0,0,0,.31.31c2.22,1.64,5.08,3.28,7.44,4.79a1.89,1.89,0,0,1,.74.93,2.09,2.09,0,0,1,.11.41l.15.06-.17.77q-.2.91-.35,1.82T185,73.15c-.07.63-.12,1.25-.15,1.86s0,1.23,0,1.89,0,1.28,0,1.88.09,1.24.15,1.87.15,1.26.25,1.85.22,1.21.35,1.82a2.16,2.16,0,0,1-.11,1.29,1.88,1.88,0,0,1-.8.92l-6.58,4.24h0l-.78.5a1.1,1.1,0,0,0-.31.3,1.29,1.29,0,0,0-.18.42,1.39,1.39,0,0,0,0,.47,1.24,1.24,0,0,0,.13.43l4.87,9.42h0l.39.76a1.16,1.16,0,0,0,.27.35,1.05,1.05,0,0,0,.38.21,1,1,0,0,0,.42,0,1,1,0,0,0,.39-.15c2.36-1.65,5-3.23,7.45-4.8a1.61,1.61,0,0,1,1.09-.25,1.69,1.69,0,0,1,1,.53h0a28.69,28.69,0,0,0,2.56,2.44,27.63,27.63,0,0,0,2.8,2.07,26.41,26.41,0,0,0,3,1.67,25.74,25.74,0,0,0,3.15,1.24,1.76,1.76,0,0,1,.92.7,2.13,2.13,0,0,1,.36,1.19v9.58a1.28,1.28,0,0,0,.08.45,1.22,1.22,0,0,0,.23.39,1,1,0,0,0,.35.26,1,1,0,0,0,.4.09h10.55a1,1,0,0,0,.4-.09,1.08,1.08,0,0,0,.35-.26,1.25,1.25,0,0,0,.31-.84v-9.58a2.1,2.1,0,0,1,.38-1.22,1.75,1.75,0,0,1,1-.7,25.33,25.33,0,0,0,3.1-1.23,26.25,26.25,0,0,0,3-1.66,27.66,27.66,0,0,0,2.8-2.07A28.76,28.76,0,0,0,231.5,99a1.68,1.68,0,0,1,1.06-.54,1.62,1.62,0,0,1,1.13.32l7.36,4.74a.94.94,0,0,0,.39.15,1,1,0,0,0,.42,0,1.05,1.05,0,0,0,.38-.21,1.15,1.15,0,0,0,.27-.35c1.75-3.4,3.52-6.78,5.27-10.18a1.28,1.28,0,0,0,.13-.43,1.38,1.38,0,0,0,0-.47,1.28,1.28,0,0,0-.18-.42,1,1,0,0,0-.3-.3L240,86.5a1.9,1.9,0,0,1-.74-.93,2.21,2.21,0,0,1-.09-.32l-.19,0,.2-.88q.2-.91.35-1.82c.1-.59.18-1.21.25-1.85s.12-1.25.15-1.87.05-1.23.05-1.88,0-1.28-.05-1.88-.08-1.24-.15-1.86-.16-1.27-.25-1.86-.22-1.21-.35-1.82a2.16,2.16,0,0,1,.11-1.3,1.9,1.9,0,0,1,.79-.92l7.37-4.75a1,1,0,0,0,.31-.3,1.25,1.25,0,0,0,.18-.42,1.38,1.38,0,0,0,0-.47,1.27,1.27,0,0,0-.13-.43c-1.8-3-3.6-7-5.27-10.18a1.16,1.16,0,0,0-.27-.35,1,1,0,0,0-.38-.21,1,1,0,0,0-.42,0,1,1,0,0,0-.39.15l-7.45,4.79a1.59,1.59,0,0,1-1.12.25,1.71,1.71,0,0,1-1-.55,28.77,28.77,0,0,0-2.55-2.42,27.66,27.66,0,0,0-2.79-2.06,26.62,26.62,0,0,0-3-1.67A25.48,25.48,0,0,0,220,47.36a1.77,1.77,0,0,1-.92-.71,2.13,2.13,0,0,1-.36-1.18V35.89a1.28,1.28,0,0,0-.08-.45,1.2,1.2,0,0,0-.23-.39,1.05,1.05,0,0,0-.35-.26,1,1,0,0,0-.4-.09H207.1a1,1,0,0,0-.4.09,1.11,1.11,0,0,0-.35.26,1.27,1.27,0,0,0-.31.84v9.58a2.1,2.1,0,0,1-.38,1.22,1.77,1.77,0,0,1-1,.7ZM201,47a28.14,28.14,0,0,0-3.14,1.75,29.21,29.21,0,0,0-3,2.19,30.4,30.4,0,0,0-2.7,2.57.2.2,0,0,1-.25,0q-3.76-2.42-7.51-4.84a2.38,2.38,0,0,0-1.93-.25,2.54,2.54,0,0,0-.92.5,2.83,2.83,0,0,0-.67.86c-1.81,3.28-3.54,6.83-5.27,10.18a3.13,3.13,0,0,0-.33,1.08,3.3,3.3,0,0,0,.07,1.14,3.09,3.09,0,0,0,.45,1,2.67,2.67,0,0,0,.77.75c2.39,1.65,5,3.21,7.44,4.79a.21.21,0,0,1,.08.11.25.25,0,0,1,0,.14l-.17.77h0c-.08.38-.14.76-.21,1.15q-.16,1-.27,2c-.07.64-.12,1.29-.16,2s-.06,1.34-.06,2,0,1.31.06,2,.09,1.33.16,2,.16,1.29.27,2,.23,1.3.37,1.93a.25.25,0,0,1,0,.15A.21.21,0,0,1,184,85c-2.73,1.63-5.51,3.55-8.22,5.29l.1.13-.08.11a3.11,3.11,0,0,0-.45,1,3.29,3.29,0,0,0-.07,1.14,3.09,3.09,0,0,0,.33,1.08l5.67,10.94.11-.07.17.16a2.55,2.55,0,0,0,.92.51,2.4,2.4,0,0,0,1,.08,2.44,2.44,0,0,0,.94-.35c2.48-1.47,5-3.24,7.48-4.82a.19.19,0,0,1,.12,0,.2.2,0,0,1,.12.06,30.35,30.35,0,0,0,2.7,2.57,29.24,29.24,0,0,0,3,2.18A27.78,27.78,0,0,0,201,106.8a27,27,0,0,0,3.33,1.32.21.21,0,0,1,.11.08.23.23,0,0,1,0,.14v9.58a3.19,3.19,0,0,0,.2,1.12,2.93,2.93,0,0,0,.57.95,2.64,2.64,0,0,0,.85.64,2.36,2.36,0,0,0,1,.22h10.55a2.36,2.36,0,0,0,1-.22,2.68,2.68,0,0,0,.85-.64,3,3,0,0,0,.57-.95,3.2,3.2,0,0,0,.2-1.12v-9.58a.25.25,0,0,1,0-.15.21.21,0,0,1,.12-.08h0a26.92,26.92,0,0,0,3.31-1.31,28,28,0,0,0,3.15-1.75,29.06,29.06,0,0,0,3-2.19,30.36,30.36,0,0,0,2.7-2.57.19.19,0,0,1,.12-.06.2.2,0,0,1,.13,0l7.44,4.79a2.39,2.39,0,0,0,2,.29,2.55,2.55,0,0,0,.92-.51,2.82,2.82,0,0,0,.66-.83c2-3.51,3.8-7.35,5.67-10.95l-.1-.07c0-.09,0-.18,0-.28a3.28,3.28,0,0,0-.07-1.14,3.09,3.09,0,0,0-.45-1,2.71,2.71,0,0,0-.76-.75L240.73,85a.22.22,0,0,1-.08-.11.27.27,0,0,1,0-.15l.19-.88h0q.1-.51.19-1c.11-.66.2-1.32.27-2s.12-1.29.16-2,.05-1.34.05-2,0-1.31-.05-2-.09-1.33-.16-2-.16-1.29-.27-2-.23-1.3-.37-1.92a.27.27,0,0,1,0-.15.22.22,0,0,1,.09-.11L248.17,64a2.65,2.65,0,0,0,.76-.75,3.15,3.15,0,0,0,.45-1,3.28,3.28,0,0,0,.07-1.14,3.14,3.14,0,0,0-.31-1.06c-1.77-3.66-3.8-7.35-5.68-11l-.11.07-.17-.16a2.54,2.54,0,0,0-.92-.5,2.37,2.37,0,0,0-1-.08,2.41,2.41,0,0,0-1,.36l-.55.35h0l-6.9,4.44a.19.19,0,0,1-.13,0,.2.2,0,0,1-.12-.07l0,0a30.5,30.5,0,0,0-2.7-2.56,29.14,29.14,0,0,0-2.95-2.18A27.82,27.82,0,0,0,223.75,47a27.11,27.11,0,0,0-3.33-1.32.21.21,0,0,1-.11-.08.23.23,0,0,1,0-.14V35.89a3.19,3.19,0,0,0-.2-1.11,3,3,0,0,0-.57-1,2.65,2.65,0,0,0-.85-.63,2.37,2.37,0,0,0-1-.22H207.1a2.36,2.36,0,0,0-1,.22,2.69,2.69,0,0,0-.85.63,3.1,3.1,0,0,0-.77,2.07v9.58a.28.28,0,0,1,0,.15.21.21,0,0,1-.12.08h0A27.37,27.37,0,0,0,201,47Z"/><path class="cls-31" d="M528.09,175.29Zm3.71-15.75a6.63,6.63,0,0,1,10.09,0,8.63,8.63,0,0,1,0,11.25,6.63,6.63,0,0,1-10.09,0,8.62,8.62,0,0,1,0-11.25Zm1.54-7.89a11.88,11.88,0,0,0-2.8,1.33,12.91,12.91,0,0,0-2.45,2.06.4.4,0,0,1-.52.07L524.25,153h0a.75.75,0,0,0-.6-.08.84.84,0,0,0-.5.43v0l-2.33,4.51a1,1,0,0,0-.08.7.9.9,0,0,0,.38.56l0,0,3.29,2.12a.52.52,0,0,1,.21.54h0a15.52,15.52,0,0,0-.28,1.68,16.24,16.24,0,0,0,0,3.43,15.56,15.56,0,0,0,.28,1.68.51.51,0,0,1-.23.55l-3.29,2.12h0a.91.91,0,0,0-.38.56,1,1,0,0,0,.08.7l2.35,4.53h0a.84.84,0,0,0,.5.42.74.74,0,0,0,.62-.09h0l3.29-2.12a.4.4,0,0,1,.52.07,12.9,12.9,0,0,0,2.45,2.06,11.9,11.9,0,0,0,2.81,1.33.48.48,0,0,1,.32.47v4.26a1,1,0,0,0,.24.65.78.78,0,0,0,.58.27h4.69a.78.78,0,0,0,.58-.27,1,1,0,0,0,.24-.65v-4.26a.48.48,0,0,1,.34-.48,11.9,11.9,0,0,0,2.8-1.33,13,13,0,0,0,2.45-2.06.41.41,0,0,1,.55-.06l3.29,2.12a.74.74,0,0,0,.62.09.84.84,0,0,0,.5-.42l0,0,2.33-4.51h0a1,1,0,0,0,.08-.69.91.91,0,0,0-.38-.56l-3.31-2.13a.52.52,0,0,1-.21-.54h0a15.79,15.79,0,0,0,.28-1.68,16,16,0,0,0,0-3.43,15.78,15.78,0,0,0-.28-1.68.51.51,0,0,1,.23-.55l3.29-2.12a.91.91,0,0,0,.38-.56,1,1,0,0,0-.08-.69v0l-2.33-4.51h0a.83.83,0,0,0-.5-.43.74.74,0,0,0-.62.09h0l-3.32,2.14a.4.4,0,0,1-.53-.08,12.88,12.88,0,0,0-2.45-2.05,11.87,11.87,0,0,0-2.81-1.33.48.48,0,0,1-.32-.47v-4.27a1,1,0,0,0-.24-.64.78.78,0,0,0-.58-.27h-4.69a.77.77,0,0,0-.58.27,1,1,0,0,0-.24.64v4.27A.48.48,0,0,1,533.34,151.65Z"/><path class="cls-31" d="M677,282.11a16.83,16.83,0,0,1,5.46-4.07,15.22,15.22,0,0,1,12.85,0,16.85,16.85,0,0,1,5.46,4.07,19,19,0,0,1,3.65,6.09,20.79,20.79,0,0,1,0,14.33,19,19,0,0,1-3.65,6.09,16.85,16.85,0,0,1-5.46,4.07,15.24,15.24,0,0,1-12.85,0,16.81,16.81,0,0,1-5.46-4.07,19.07,19.07,0,0,1-3.65-6.09,20.77,20.77,0,0,1,0-14.33,19.1,19.1,0,0,1,3.65-6.09Zm6.05-2.47a15.26,15.26,0,0,0-4.95,3.7,17.22,17.22,0,0,0-3.32,5.52,18.94,18.94,0,0,0,0,13,17.25,17.25,0,0,0,3.32,5.52,15.29,15.29,0,0,0,4.95,3.7,13.87,13.87,0,0,0,11.67,0,15.28,15.28,0,0,0,5-3.7,17.24,17.24,0,0,0,3.31-5.52,18.94,18.94,0,0,0,0-13,17.23,17.23,0,0,0-3.31-5.52,15.29,15.29,0,0,0-4.95-3.7,13.88,13.88,0,0,0-11.67,0Zm-1.86-13.8a25.83,25.83,0,0,0-3.1,1.23,26.28,26.28,0,0,0-3,1.66,27.42,27.42,0,0,0-2.8,2.07,28.82,28.82,0,0,0-2.56,2.44,1.68,1.68,0,0,1-1,.53,1.6,1.6,0,0,1-1.1-.25c-2.47-1.59-5.06-3.16-7.48-4.82a1,1,0,0,0-.36-.13,1.06,1.06,0,0,0-.41,0,1,1,0,0,0-.38.21,1.08,1.08,0,0,0-.27.34c-1.8,3-3.61,7-5.27,10.18a1.24,1.24,0,0,0-.13.43,1.41,1.41,0,0,0,0,.48,1.29,1.29,0,0,0,.18.42,1.12,1.12,0,0,0,.31.31c2.22,1.64,5.08,3.28,7.44,4.79a1.91,1.91,0,0,1,.74.93,2.15,2.15,0,0,1,.11.41l.16.06-.17.77c-.14.61-.25,1.22-.35,1.82s-.18,1.21-.25,1.85-.12,1.25-.15,1.87,0,1.23,0,1.89,0,1.28,0,1.88.09,1.24.15,1.87.15,1.26.25,1.85.22,1.22.35,1.82a2.17,2.17,0,0,1-.11,1.3,1.89,1.89,0,0,1-.8.92l-6.59,4.24h0l-.78.5a1.11,1.11,0,0,0-.31.31,1.28,1.28,0,0,0-.18.42,1.4,1.4,0,0,0,0,.47,1.26,1.26,0,0,0,.13.43l4.88,9.42h0l.39.76a1.1,1.1,0,0,0,.27.34,1,1,0,0,0,.38.21,1.07,1.07,0,0,0,.42,0,1,1,0,0,0,.39-.15c2.36-1.65,5-3.23,7.45-4.8a1.63,1.63,0,0,1,1.09-.25,1.7,1.7,0,0,1,1,.53h0a29.25,29.25,0,0,0,2.56,2.44,27.32,27.32,0,0,0,2.8,2.07,26.46,26.46,0,0,0,3,1.67,25.37,25.37,0,0,0,3.15,1.25,1.76,1.76,0,0,1,.92.71,2.11,2.11,0,0,1,.36,1.19v9.59a1.3,1.3,0,0,0,.08.45,1.19,1.19,0,0,0,.23.39,1.05,1.05,0,0,0,.35.26,1,1,0,0,0,.4.09h10.55a1,1,0,0,0,.4-.09,1.14,1.14,0,0,0,.35-.26,1.24,1.24,0,0,0,.31-.84V326.8a2.11,2.11,0,0,1,.38-1.22,1.76,1.76,0,0,1,1-.7,25.23,25.23,0,0,0,3.1-1.23,26,26,0,0,0,3-1.66,27.21,27.21,0,0,0,2.8-2.07,28.64,28.64,0,0,0,2.56-2.44,1.68,1.68,0,0,1,1.06-.54,1.63,1.63,0,0,1,1.13.32l7.36,4.74a1,1,0,0,0,.39.15,1.06,1.06,0,0,0,.43,0,1,1,0,0,0,.38-.21,1.2,1.2,0,0,0,.27-.34c1.75-3.4,3.52-6.79,5.27-10.19a1.23,1.23,0,0,0,.13-.43,1.34,1.34,0,0,0,0-.47,1.29,1.29,0,0,0-.18-.42,1.11,1.11,0,0,0-.3-.3L716.49,305a1.88,1.88,0,0,1-.74-.93,2,2,0,0,1-.09-.32l-.19,0,.2-.88c.13-.61.25-1.22.35-1.82s.18-1.21.25-1.85.12-1.25.15-1.87,0-1.23,0-1.88,0-1.29,0-1.89-.09-1.24-.15-1.86-.16-1.27-.25-1.86-.22-1.21-.35-1.82a2.14,2.14,0,0,1,.11-1.3,1.91,1.91,0,0,1,.79-.92l7.37-4.75a1.08,1.08,0,0,0,.31-.3,1.25,1.25,0,0,0,.18-.42,1.35,1.35,0,0,0,0-.47,1.24,1.24,0,0,0-.13-.43c-1.8-3-3.6-7-5.27-10.18a1.2,1.2,0,0,0-.27-.34,1,1,0,0,0-.38-.21,1.06,1.06,0,0,0-.42,0,1,1,0,0,0-.39.15l-7.45,4.79a1.59,1.59,0,0,1-1.12.25,1.72,1.72,0,0,1-1-.55,28.91,28.91,0,0,0-2.55-2.43,27.61,27.61,0,0,0-2.79-2.06,26.63,26.63,0,0,0-3-1.67,25.89,25.89,0,0,0-3.15-1.24,1.75,1.75,0,0,1-.92-.71,2.11,2.11,0,0,1-.36-1.18v-9.59a1.3,1.3,0,0,0-.08-.45,1.2,1.2,0,0,0-.24-.39,1,1,0,0,0-.35-.26.93.93,0,0,0-.4-.09H683.63a.94.94,0,0,0-.4.09,1.07,1.07,0,0,0-.35.26,1.27,1.27,0,0,0-.31.84v9.59a2.12,2.12,0,0,1-.38,1.22,1.77,1.77,0,0,1-1,.7Zm-3.71-.36a27.76,27.76,0,0,0-3.14,1.75,28.94,28.94,0,0,0-3,2.19,30.37,30.37,0,0,0-2.7,2.57.19.19,0,0,1-.12.06.18.18,0,0,1-.13,0l-7.51-4.84a2.38,2.38,0,0,0-1.93-.25,2.55,2.55,0,0,0-.92.5,2.84,2.84,0,0,0-.67.85c-1.81,3.28-3.54,6.83-5.27,10.18a3.16,3.16,0,0,0-.32,1.08,3.27,3.27,0,0,0,.07,1.14,3.14,3.14,0,0,0,.45,1,2.73,2.73,0,0,0,.77.75c2.39,1.65,5,3.21,7.44,4.79a.22.22,0,0,1,.09.11.27.27,0,0,1,0,.15l-.17.77h0c-.07.38-.14.76-.21,1.15q-.17,1-.27,2t-.16,2q-.05,1-.06,2c0,.64,0,1.31.06,2s.09,1.33.16,2,.16,1.29.27,2,.23,1.3.37,1.93a.27.27,0,0,1,0,.15.23.23,0,0,1-.09.11c-2.74,1.63-5.51,3.55-8.22,5.29l.1.13-.08.12a3.13,3.13,0,0,0-.45,1,3.27,3.27,0,0,0-.07,1.14,3.09,3.09,0,0,0,.33,1.08l5.66,10.94.11-.07.17.16a2.55,2.55,0,0,0,.92.5,2.37,2.37,0,0,0,1,.08,2.46,2.46,0,0,0,.94-.35c2.48-1.47,5-3.24,7.48-4.82a.21.21,0,0,1,.12,0,.22.22,0,0,1,.12.06,30.61,30.61,0,0,0,2.7,2.57,28.74,28.74,0,0,0,3,2.19,28.22,28.22,0,0,0,3.17,1.76,27.13,27.13,0,0,0,3.33,1.32.2.2,0,0,1,.11.08.22.22,0,0,1,0,.14v9.59a3.18,3.18,0,0,0,.2,1.11,3,3,0,0,0,.57,1,2.61,2.61,0,0,0,.85.63,2.35,2.35,0,0,0,1,.22h10.55a2.34,2.34,0,0,0,1-.22,2.66,2.66,0,0,0,.85-.63,3,3,0,0,0,.57-1,3.16,3.16,0,0,0,.2-1.11V326.8a.23.23,0,0,1,0-.14.2.2,0,0,1,.12-.08h0a26.94,26.94,0,0,0,3.31-1.31,27.91,27.91,0,0,0,3.15-1.75,28.87,28.87,0,0,0,3-2.19,31,31,0,0,0,2.7-2.57.18.18,0,0,1,.25,0l7.44,4.79a2.42,2.42,0,0,0,1,.36,2.39,2.39,0,0,0,1-.08,2.52,2.52,0,0,0,.92-.5,2.76,2.76,0,0,0,.66-.83c2-3.51,3.8-7.35,5.67-10.95l-.1-.07a2.55,2.55,0,0,0,0-.28,3.23,3.23,0,0,0-.07-1.14,3.06,3.06,0,0,0-.45-1,2.67,2.67,0,0,0-.77-.75l-7.44-4.79a.23.23,0,0,1-.08-.11.26.26,0,0,1,0-.15l.19-.88h0c.07-.34.13-.69.19-1,.11-.66.2-1.32.27-2s.12-1.29.16-2,.05-1.34.05-2,0-1.31-.05-2-.09-1.33-.16-2-.16-1.29-.27-2-.23-1.3-.37-1.92a.25.25,0,0,1,0-.15.22.22,0,0,1,.1-.11l7.43-4.79a2.63,2.63,0,0,0,.77-.75,3.1,3.1,0,0,0,.45-1,3.25,3.25,0,0,0-.24-2.19c-1.77-3.66-3.8-7.35-5.68-11l-.11.07-.18-.16a2.52,2.52,0,0,0-.92-.5,2.41,2.41,0,0,0-2,.28l-.55.35h0l-6.9,4.44a.19.19,0,0,1-.13,0,.2.2,0,0,1-.12-.07l0,0a30.35,30.35,0,0,0-2.7-2.56,28.79,28.79,0,0,0-2.94-2.18,27.91,27.91,0,0,0-3.17-1.76,26.76,26.76,0,0,0-3.33-1.32.23.23,0,0,1-.15-.22v-9.59a3.15,3.15,0,0,0-.2-1.12,2.91,2.91,0,0,0-.57-.95,2.63,2.63,0,0,0-.85-.64,2.35,2.35,0,0,0-1-.22H683.63a2.36,2.36,0,0,0-1,.22,2.68,2.68,0,0,0-.85.64,3.1,3.1,0,0,0-.77,2.06v9.59a.3.3,0,0,1,0,.15.22.22,0,0,1-.12.08h0A26.81,26.81,0,0,0,677.5,265.48Z"/><path class="cls-5" d="M78.19,119.66a1.23,1.23,0,1,0-2.45,0v3.21H72.86a1.37,1.37,0,0,0,0,2.73h2.88v3.21a1.23,1.23,0,1,0,2.45,0V125.6h2.88a1.37,1.37,0,0,0,0-2.73H78.19Z"/><path class="cls-5" d="M290.09,40.84a1.23,1.23,0,1,0-2.45,0V44h-2.88a1.37,1.37,0,0,0,0,2.73h2.88V50a1.23,1.23,0,1,0,2.45,0V46.78H293A1.37,1.37,0,0,0,293,44h-2.88Z"/><path class="cls-5" d="M402.33,31.57a1.23,1.23,0,1,0-2.44,0v3.21H397a1.37,1.37,0,0,0,0,2.73h2.88v3.21a1.23,1.23,0,1,0,2.44,0V37.51h2.88a1.37,1.37,0,0,0,0-2.73h-2.88Z"/><path class="cls-5" d="M610.18,312.84a1.23,1.23,0,1,0-2.45,0V316h-2.88a1.37,1.37,0,0,0,0,2.73h2.88V322a1.23,1.23,0,1,0,2.45,0v-3.21h2.88a1.37,1.37,0,0,0,0-2.73h-2.88Z"/><path class="cls-5" d="M136.28,434.92a1.23,1.23,0,1,0-2.45,0v3.21H131a1.37,1.37,0,0,0,0,2.73h2.88v3.21a1.23,1.23,0,1,0,2.45,0v-3.21h2.88a1.37,1.37,0,0,0,0-2.73h-2.88Z"/><path class="cls-5" d="M79.47,207.75a1.23,1.23,0,1,0-2.45,0V211H74.14a1.37,1.37,0,0,0,0,2.73H77v3.21a1.23,1.23,0,1,0,2.45,0v-3.21h2.88a1.37,1.37,0,0,0,0-2.73H79.47Z"/><path class="cls-4" d="M519.67,490.11H399.74a4.67,4.67,0,0,1-4.38-4.89V348.13a4.67,4.67,0,0,1,4.38-4.89H519.67a4.67,4.67,0,0,1,4.38,4.89V485.23A4.67,4.67,0,0,1,519.67,490.11Z"/><path class="cls-23" d="M544.47,490.11h-43.4a4.67,4.67,0,0,1-4.38-4.89V348.13a4.67,4.67,0,0,1,4.38-4.89h43.4a4.67,4.67,0,0,1,4.38,4.89V485.23A4.67,4.67,0,0,1,544.47,490.11Z"/><path class="cls-32" d="M538.33,355.17H507.2a2.55,2.55,0,0,0-2.39,2.67v2.41a2.55,2.55,0,0,0,2.39,2.67h31.13a2.55,2.55,0,0,0,2.39-2.67v-2.41A2.55,2.55,0,0,0,538.33,355.17Z"/><path class="cls-33" d="M537.63,357.84a2.55,2.55,0,0,0-2.39-2.67h3.1a2.55,2.55,0,0,1,2.39,2.67v2.41a2.55,2.55,0,0,1-2.39,2.67h-3.1c.15,0,2.39-1.2,2.39-2.67Z"/><path class="cls-32" d="M538.33,367.08H507.2a2.55,2.55,0,0,0-2.39,2.67v2.41a2.55,2.55,0,0,0,2.39,2.67h31.13a2.55,2.55,0,0,0,2.39-2.67v-2.41A2.55,2.55,0,0,0,538.33,367.08Z"/><path class="cls-33" d="M537.63,369.75a2.55,2.55,0,0,0-2.39-2.67h3.1a2.55,2.55,0,0,1,2.39,2.67v2.41a2.55,2.55,0,0,1-2.39,2.67h-3.1c.15,0,2.39-1.2,2.39-2.67Z"/><path class="cls-32" d="M538.33,379H507.2a2.55,2.55,0,0,0-2.39,2.67v2.41a2.55,2.55,0,0,0,2.39,2.67h31.13a2.55,2.55,0,0,0,2.39-2.67v-2.41A2.55,2.55,0,0,0,538.33,379Z"/><path class="cls-33" d="M537.63,381.68a2.55,2.55,0,0,0-2.39-2.67h3.1a2.55,2.55,0,0,1,2.39,2.67v2.41a2.55,2.55,0,0,1-2.39,2.67h-3.1c.15,0,2.39-1.2,2.39-2.67Z"/><path class="cls-32" d="M538.33,390.93H507.2a2.55,2.55,0,0,0-2.39,2.67V396a2.55,2.55,0,0,0,2.39,2.67h31.13a2.55,2.55,0,0,0,2.39-2.67V393.6A2.55,2.55,0,0,0,538.33,390.93Z"/><path class="cls-33" d="M537.63,393.6a2.55,2.55,0,0,0-2.39-2.67h3.1a2.55,2.55,0,0,1,2.39,2.67V396a2.55,2.55,0,0,1-2.39,2.67h-3.1c.15,0,2.39-1.2,2.39-2.67Z"/><path class="cls-32" d="M531.83,426.66H513.71c-5.36,0-9.75,4.89-9.75,10.88V458c0,6,4.39,10.87,9.75,10.87h18.12c5.36,0,9.75-4.89,9.75-10.87V437.54C541.58,431.55,537.19,426.66,531.83,426.66Z"/><path class="cls-33" d="M537.95,437.54c0-6-4.39-10.88-9.75-10.88h3.63c5.36,0,9.75,4.89,9.75,10.88V458c0,6-4.39,10.87-9.75,10.87H528.2c5.36,0,9.75-4.89,9.75-10.87Z"/><path class="cls-34" d="M523.86,426.66h-2.19V438.9a8.53,8.53,0,0,0-6.85,7.64h-11V449h11a8.53,8.53,0,0,0,6.85,7.64v12.24h2.19V456.62a8.53,8.53,0,0,0,6.85-7.64h11v-2.44h-11a8.53,8.53,0,0,0-6.85-7.64V426.66Zm-1.09,27.62c-3.23,0-5.85-2.92-5.85-6.52s2.62-6.53,5.85-6.53,5.85,2.92,5.85,6.53S526,454.29,522.77,454.29Z"/><path class="cls-32" d="M518,415.25H506.35a2.55,2.55,0,0,0-2.39,2.67v2.41a2.55,2.55,0,0,0,2.39,2.67H518a2.55,2.55,0,0,0,2.39-2.67v-2.41A2.55,2.55,0,0,0,518,415.25Z"/><path class="cls-33" d="M517.32,417.92a2.55,2.55,0,0,0-2.39-2.67H518a2.55,2.55,0,0,1,2.39,2.67v2.41A2.55,2.55,0,0,1,518,423h-3.1c.15,0,2.39-1.2,2.39-2.67Z"/><path class="cls-32" d="M518,403.68H506.35a2.55,2.55,0,0,0-2.39,2.67v2.41a2.55,2.55,0,0,0,2.39,2.67H518a2.55,2.55,0,0,0,2.39-2.67v-2.41A2.55,2.55,0,0,0,518,403.68Z"/><path class="cls-33" d="M517.32,406.35a2.55,2.55,0,0,0-2.39-2.67H518a2.55,2.55,0,0,1,2.39,2.67v2.41a2.55,2.55,0,0,1-2.39,2.67h-3.1c.15,0,2.39-1.2,2.39-2.67Z"/><path class="cls-23" d="M451.1,358.17H422c-8.61,0-15.66,7.86-15.66,17.46v32.84c0,9.6,7,17.46,15.66,17.46h29.1c8.61,0,15.66-7.86,15.66-17.46V375.64C466.76,366,459.71,358.17,451.1,358.17Z"/><path class="cls-22" d="M450.13,360.45H423c-8,0-14.61,7.33-14.61,16.29v30.63c0,9,6.57,16.29,14.61,16.29h27.15c8,0,14.6-7.33,14.6-16.29V376.74C464.73,367.78,458.16,360.45,450.13,360.45Z"/><path class="cls-35" d="M413,419.28a13.77,13.77,0,0,0,9.94,4.38h27.15c8,0,14.6-7.33,14.6-16.29V383.15H452.16V366H422.23v36.39H413Z"/><path class="cls-23" d="M479,438.08h-1.79a1.56,1.56,0,0,0,2.9.07,8.53,8.53,0,0,0-1.11-.07Zm-3.11,0H473a1.56,1.56,0,0,0,2.93,0Zm-4.25,0h-2.94a1.56,1.56,0,0,0,2.94,0Zm-4.25,0h-2.94a1.56,1.56,0,0,0,2.94,0Zm-4.25,0h-1.79a8.51,8.51,0,0,0-1.11.07,1.56,1.56,0,0,0,2.9-.07Zm-4.53.45a8.93,8.93,0,0,0-1.32.57h.13a1.55,1.55,0,0,0,1.19-.58Zm-4,2.68a10.78,10.78,0,0,0-1.71,2.61l.25,0a1.73,1.73,0,0,0,1.63-1.82,2,2,0,0,0-.17-.82Zm-2.24,4a11.52,11.52,0,0,0-.5,2.7,1.57,1.57,0,0,0,1.29.71,1.83,1.83,0,0,0,0-3.63,1.49,1.49,0,0,0-.78.22Zm-.53,5.26v2.14a1.57,1.57,0,0,0,1.31.75,1.83,1.83,0,0,0,0-3.63,1.58,1.58,0,0,0-1.31.75Zm0,4.74v2.14a1.58,1.58,0,0,0,1.31.74,1.83,1.83,0,0,0,0-3.63,1.58,1.58,0,0,0-1.31.74Zm0,4.74v2.14a1.57,1.57,0,0,0,1.31.75,1.83,1.83,0,0,0,0-3.63,1.58,1.58,0,0,0-1.31.75Zm0,4.74v2.14a1.58,1.58,0,0,0,1.31.74,1.83,1.83,0,0,0,0-3.63,1.58,1.58,0,0,0-1.31.75Zm0,4.7a11.49,11.49,0,0,0,.5,2.7,1.51,1.51,0,0,0,.78.22,1.83,1.83,0,0,0,0-3.63,1.57,1.57,0,0,0-1.29.71Zm1,4.06a10.67,10.67,0,0,0,1.71,2.61,2,2,0,0,0,.17-.82,1.73,1.73,0,0,0-1.63-1.82l-.25,0Zm4.38,4.72a9,9,0,0,0,1.32.57,1.55,1.55,0,0,0-1.19-.57Zm2.95.95a8.49,8.49,0,0,0,1.11.08h1.79a1.56,1.56,0,0,0-2.9-.08Zm4.22.08h2.94a1.56,1.56,0,0,0-2.94,0Zm4.25,0h2.94a1.56,1.56,0,0,0-2.94,0Zm4.25,0h2.93a1.56,1.56,0,0,0-2.93,0Zm4.25,0H479a8.51,8.51,0,0,0,1.11-.08,1.56,1.56,0,0,0-2.9.08Zm4.53-.45a9.05,9.05,0,0,0,1.32-.57h-.13a1.55,1.55,0,0,0-1.19.57Zm4-2.68a10.72,10.72,0,0,0,1.71-2.61l-.26,0a1.73,1.73,0,0,0-1.63,1.82,2,2,0,0,0,.17.82Zm2.24-4a11.54,11.54,0,0,0,.5-2.7,1.57,1.57,0,0,0-1.29-.71,1.83,1.83,0,0,0,0,3.63,1.51,1.51,0,0,0,.78-.22Zm.53-5.26v-2.14a1.58,1.58,0,0,0-1.32-.75,1.83,1.83,0,0,0,0,3.63,1.58,1.58,0,0,0,1.32-.74Zm0-4.74v-2.14a1.58,1.58,0,0,0-1.32-.75,1.83,1.83,0,0,0,0,3.63,1.58,1.58,0,0,0,1.32-.75Zm0-4.74v-2.14a1.58,1.58,0,0,0-1.32-.74,1.83,1.83,0,0,0,0,3.63,1.58,1.58,0,0,0,1.32-.75Zm0-4.74v-2.14a1.58,1.58,0,0,0-1.32-.75,1.83,1.83,0,0,0,0,3.63,1.58,1.58,0,0,0,1.32-.75Zm0-4.7a11.41,11.41,0,0,0-.51-2.7,1.47,1.47,0,0,0-.78-.22,1.83,1.83,0,0,0,0,3.63,1.57,1.57,0,0,0,1.29-.71Zm-1-4.06a10.78,10.78,0,0,0-1.71-2.61,2,2,0,0,0-.17.82,1.73,1.73,0,0,0,1.63,1.82l.26,0Zm-4.38-4.72a8.89,8.89,0,0,0-1.32-.57,1.55,1.55,0,0,0,1.19.58ZM457.44,477a1.83,1.83,0,1,1,1.63-1.82,1.73,1.73,0,0,1-1.63,1.82Zm4.25,0a1.83,1.83,0,1,1,1.63-1.82,1.73,1.73,0,0,1-1.63,1.82Zm4.25,0a1.83,1.83,0,1,1,1.63-1.82,1.73,1.73,0,0,1-1.63,1.82Zm4.25,0a1.83,1.83,0,1,1,1.63-1.82,1.73,1.73,0,0,1-1.63,1.82Zm4.25,0a1.83,1.83,0,1,1,1.63-1.82,1.73,1.73,0,0,1-1.63,1.82Zm4.25,0a1.83,1.83,0,1,1,1.63-1.82,1.73,1.73,0,0,1-1.63,1.82Zm4.25,0a1.83,1.83,0,1,1,1.63-1.82,1.73,1.73,0,0,1-1.63,1.82Zm-25.5-8.37a1.83,1.83,0,1,0,1.63,1.81,1.73,1.73,0,0,0-1.63-1.81Zm4.25,0a1.83,1.83,0,1,0,1.63,1.81,1.73,1.73,0,0,0-1.63-1.81Zm4.25,0a1.83,1.83,0,1,0,1.63,1.81,1.73,1.73,0,0,0-1.63-1.81Zm4.25,0a1.83,1.83,0,1,0,1.63,1.81,1.73,1.73,0,0,0-1.63-1.81Zm4.25,0a1.83,1.83,0,1,0,1.63,1.81,1.73,1.73,0,0,0-1.63-1.81Zm4.25,0a1.83,1.83,0,1,0,1.63,1.81,1.73,1.73,0,0,0-1.63-1.81Zm4.25,0a1.83,1.83,0,1,0,1.63,1.81,1.73,1.73,0,0,0-1.63-1.81Zm-25.5-1.11a1.83,1.83,0,1,1,1.63-1.82,1.73,1.73,0,0,1-1.63,1.82Zm4.25,0a1.83,1.83,0,1,1,1.63-1.82,1.73,1.73,0,0,1-1.63,1.82Zm4.25,0a1.83,1.83,0,1,1,1.63-1.82,1.73,1.73,0,0,1-1.63,1.82Zm4.25,0a1.83,1.83,0,1,1,1.63-1.82,1.73,1.73,0,0,1-1.63,1.82Zm4.25,0a1.83,1.83,0,1,1,1.63-1.82,1.73,1.73,0,0,1-1.63,1.82Zm4.25,0a1.83,1.83,0,1,1,1.63-1.82,1.73,1.73,0,0,1-1.63,1.82Zm4.25,0a1.83,1.83,0,1,1,1.63-1.82,1.73,1.73,0,0,1-1.63,1.82Zm-25.5-8.37a1.83,1.83,0,1,0,1.63,1.82,1.73,1.73,0,0,0-1.63-1.82Zm4.25,0a1.83,1.83,0,1,0,1.63,1.82,1.73,1.73,0,0,0-1.63-1.82Zm4.25,0a1.83,1.83,0,1,0,1.63,1.82,1.73,1.73,0,0,0-1.63-1.82Zm4.25,0a1.83,1.83,0,1,0,1.63,1.82,1.73,1.73,0,0,0-1.63-1.82Zm4.25,0a1.83,1.83,0,1,0,1.63,1.82,1.73,1.73,0,0,0-1.63-1.82Zm4.25,0a1.83,1.83,0,1,0,1.63,1.82,1.73,1.73,0,0,0-1.63-1.82Zm4.25,0a1.83,1.83,0,1,0,1.63,1.82,1.73,1.73,0,0,0-1.63-1.82Zm-25.5-1.11a1.83,1.83,0,1,1,1.63-1.81,1.73,1.73,0,0,1-1.63,1.81Zm4.25,0a1.83,1.83,0,1,1,1.63-1.81,1.73,1.73,0,0,1-1.63,1.81Zm4.25,0a1.83,1.83,0,1,1,1.63-1.81,1.73,1.73,0,0,1-1.63,1.81Zm4.25,0a1.83,1.83,0,1,1,1.63-1.81,1.73,1.73,0,0,1-1.63,1.81Zm4.25,0a1.83,1.83,0,1,1,1.63-1.81,1.73,1.73,0,0,1-1.63,1.81Zm4.25,0a1.83,1.83,0,1,1,1.63-1.81,1.73,1.73,0,0,1-1.63,1.81Zm4.25,0a1.83,1.83,0,1,1,1.63-1.81,1.73,1.73,0,0,1-1.63,1.81Zm-25.5-8.37a1.83,1.83,0,1,0,1.63,1.82,1.73,1.73,0,0,0-1.63-1.82Zm4.25,0a1.83,1.83,0,1,0,1.63,1.82,1.73,1.73,0,0,0-1.63-1.82Zm4.25,0a1.83,1.83,0,1,0,1.63,1.82,1.73,1.73,0,0,0-1.63-1.82Zm4.25,0a1.83,1.83,0,1,0,1.63,1.82,1.73,1.73,0,0,0-1.63-1.82Zm4.25,0a1.83,1.83,0,1,0,1.63,1.82,1.73,1.73,0,0,0-1.63-1.82Zm4.25,0a1.83,1.83,0,1,0,1.63,1.82,1.73,1.73,0,0,0-1.63-1.82Zm4.25,0a1.83,1.83,0,1,0,1.63,1.82,1.73,1.73,0,0,0-1.63-1.82Zm-25.5-1.11a1.83,1.83,0,1,1,1.63-1.82,1.73,1.73,0,0,1-1.63,1.82Zm4.25,0a1.83,1.83,0,1,1,1.63-1.82,1.73,1.73,0,0,1-1.63,1.82Zm4.25,0a1.83,1.83,0,1,1,1.63-1.82,1.73,1.73,0,0,1-1.63,1.82Zm4.25,0a1.83,1.83,0,1,1,1.63-1.82,1.73,1.73,0,0,1-1.63,1.82Zm4.25,0a1.83,1.83,0,1,1,1.63-1.82,1.73,1.73,0,0,1-1.63,1.82Zm4.25,0a1.83,1.83,0,1,1,1.63-1.82,1.73,1.73,0,0,1-1.63,1.82Zm4.25,0a1.83,1.83,0,1,1,1.63-1.82,1.73,1.73,0,0,1-1.63,1.82Zm-25.5-8.37a1.83,1.83,0,1,0,1.63,1.82,1.73,1.73,0,0,0-1.63-1.82Zm4.25,0a1.83,1.83,0,1,0,1.63,1.82,1.73,1.73,0,0,0-1.63-1.82Zm4.25,0a1.83,1.83,0,1,0,1.63,1.82,1.73,1.73,0,0,0-1.63-1.82Zm4.25,0a1.83,1.83,0,1,0,1.63,1.82,1.73,1.73,0,0,0-1.63-1.82Zm4.25,0a1.83,1.83,0,1,0,1.63,1.82,1.73,1.73,0,0,0-1.63-1.82Zm4.25,0a1.83,1.83,0,1,0,1.63,1.82,1.73,1.73,0,0,0-1.63-1.82Zm4.25,0a1.83,1.83,0,1,0,1.63,1.82A1.73,1.73,0,0,0,482.95,440.22Z"/><path class="cls-23" d="M442.25,476.55H403.13a1.25,1.25,0,0,0-1.17,1.31h0a1.25,1.25,0,0,0,1.17,1.31h39.13a1.25,1.25,0,0,0,1.17-1.31h0A1.25,1.25,0,0,0,442.25,476.55Z"/><path class="cls-23" d="M442.25,471.06H403.13a1.25,1.25,0,0,0-1.17,1.31h0a1.25,1.25,0,0,0,1.17,1.31h39.13a1.25,1.25,0,0,0,1.17-1.31h0A1.25,1.25,0,0,0,442.25,471.06Z"/><path class="cls-23" d="M442.25,465.56H403.13a1.25,1.25,0,0,0-1.17,1.31h0a1.25,1.25,0,0,0,1.17,1.31h39.13a1.25,1.25,0,0,0,1.17-1.31h0A1.25,1.25,0,0,0,442.25,465.56Z"/><path class="cls-23" d="M442.25,460.06h-32.5a1.25,1.25,0,0,0-1.17,1.31h0a1.25,1.25,0,0,0,1.17,1.31h32.5a1.25,1.25,0,0,0,1.17-1.31h0A1.25,1.25,0,0,0,442.25,460.06Z"/><path class="cls-23" d="M442.25,454.57H403.13a1.25,1.25,0,0,0-1.17,1.31h0a1.25,1.25,0,0,0,1.17,1.31h39.13a1.25,1.25,0,0,0,1.17-1.31h0A1.25,1.25,0,0,0,442.25,454.57Z"/><path class="cls-23" d="M442.25,449.07H403.13a1.25,1.25,0,0,0-1.17,1.31h0a1.25,1.25,0,0,0,1.17,1.31h39.13a1.25,1.25,0,0,0,1.17-1.31h0A1.25,1.25,0,0,0,442.25,449.07Z"/><path class="cls-23" d="M435,443.58H403.13a1.25,1.25,0,0,0-1.17,1.31h0a1.25,1.25,0,0,0,1.17,1.31H435a1.25,1.25,0,0,0,1.17-1.31h0A1.25,1.25,0,0,0,435,443.58Z"/><path class="cls-23" d="M442.25,438.08H403.13a1.25,1.25,0,0,0-1.17,1.31h0a1.25,1.25,0,0,0,1.17,1.31h39.13a1.25,1.25,0,0,0,1.17-1.31h0A1.25,1.25,0,0,0,442.25,438.08Z"/><path class="cls-23" d="M404.84,460.06h-1.71a1.25,1.25,0,0,0-1.17,1.31h0a1.25,1.25,0,0,0,1.17,1.31h1.71a1.25,1.25,0,0,0,1.17-1.31h0A1.25,1.25,0,0,0,404.84,460.06Z"/><path class="cls-23" d="M442.25,443.58h-2.78a1.25,1.25,0,0,0-1.17,1.31h0a1.25,1.25,0,0,0,1.17,1.31h2.78a1.25,1.25,0,0,0,1.17-1.31h0A1.25,1.25,0,0,0,442.25,443.58Z"/><path class="cls-36" d="M428.12,360.45H423a14,14,0,0,0-10.92,5.5L460,419.38a17.14,17.14,0,0,0,4.76-12v-6.09l-36.61-40.83Zm-18.68,10.2,46.37,51.72a13.23,13.23,0,0,1-5.69,1.29h-1.55l-40.2-44.84v-2.08A17.8,17.8,0,0,1,409.44,370.65Z"/></g></svg>