<svg xmlns="http://www.w3.org/2000/svg" viewBox="0 0 100 125" >
    <path d="M59 71.5c-.3 4.7-4.2 8.5-9 8.5s-8.7-3.8-9-8.5H27c-1.7 0-3-1.3-3-3v-3c0-3.3 2.7-6 6-6v-12c0-8.5 5.3-15.9 13-18.7v-.3c0-3.9 3.1-7 7-7s7 3.1 7 7v.3c7.7 2.9 13 10.3 13 18.7v12c3.3 0 6 2.7 6 6v3c0 1.7-1.3 3-3 3H59zm-4 0H45c.3 2.5 2.4 4.5 5 4.5s4.7-2 5-4.5zm17-4v-2c0-1.1-.9-2-2-2-2.2 0-4-1.8-4-4v-12c0-7.2-4.8-13.4-11.6-15.4l-1.4-.4v-3.2c0-1.7-1.3-3-3-3s-3 1.3-3 3v3.2l-1.4.4c-6.8 2-11.6 8.2-11.6 15.4v12c0 2.2-1.8 4-4 4-1.1 0-2 .9-2 2v2h44z"/>
</svg>
